<svg width="22" height="22" viewBox="0 0 22 22" fill="none" xmlns="http://www.w3.org/2000/svg">
<path fill-rule="evenodd" clip-rule="evenodd" d="M11.0153 1.00011L11 1L10.984 1.00002C5.4685 1.00866 1 5.48249 1 11C1 16.5228 5.47715 21 11 21C16.5228 21 21 16.5228 21 11L20.9999 10.9536L21 10.9383C21 10.4269 20.5855 10.0123 20.0741 10.0123C19.5627 10.0123 19.1481 10.4269 19.1481 10.9383H19.1476L19.1481 11C19.1481 15.5001 15.5001 19.1481 11 19.1481C6.4999 19.1481 2.85185 15.5001 2.85185 11C2.85185 6.4999 6.4999 2.85185 11 2.85185C11.5114 2.85185 11.9259 2.43731 11.9259 1.92593C11.9259 1.41967 11.5196 1.0083 11.0153 1.00011ZM18.6646 5.67308L16.9695 3.87749L16.954 3.86157C16.6015 3.50526 16.027 3.49389 15.6605 3.83987L15.6446 3.85529C15.2883 4.20785 15.2769 4.78232 15.6229 5.14878L15.873 5.41365L14.0865 5.41368L14.01 5.41429C11.4884 5.45518 9.45688 7.512 9.45688 10.0433V12.9494L9.45711 12.9688H10.3793C10.8907 12.9688 11.3091 12.9688 11.3087 12.9494V10.0433L11.3091 9.99735C11.3336 8.4844 12.5677 7.26548 14.0865 7.26548H16.0967L15.6035 7.91193L15.5906 7.92921C15.2956 8.3348 15.3771 8.90387 15.778 9.20972C16.1845 9.51987 16.7656 9.44177 17.0757 9.03521L18.6002 7.03714C18.7945 6.86742 18.9172 6.61783 18.9172 6.33958L18.9171 6.32425L18.9172 6.31259C18.9182 6.08174 18.8331 5.8515 18.6646 5.67308Z" fill="#333333"/>
<path d="M11 1L11.0007 0.899999L10.9999 0.9L11 1ZM11.0153 1.00011L11.0169 0.900122L11.016 0.900116L11.0153 1.00011ZM10.984 1.00002L10.9838 0.900023L10.9838 0.900023L10.984 1.00002ZM21 11H21.1V10.9998L21 11ZM20.9999 10.9536L20.8999 10.9529L20.8999 10.9538L20.9999 10.9536ZM21 10.9383L21.1 10.939V10.9383H21ZM19.1481 10.9383V11.0383H19.2481V10.9383H19.1481ZM19.1476 10.9383V10.8383H19.0468L19.0477 10.9391L19.1476 10.9383ZM19.1481 11H19.2482L19.2481 10.9992L19.1481 11ZM16.9695 3.87749L17.0422 3.80884L17.0413 3.80791L16.9695 3.87749ZM18.6646 5.67308L18.5919 5.74172L18.5919 5.74173L18.6646 5.67308ZM16.954 3.86157L17.0259 3.79199L17.0251 3.79124L16.954 3.86157ZM15.6605 3.83987L15.5919 3.76715L15.5911 3.76795L15.6605 3.83987ZM15.6446 3.85529L15.5751 3.78336L15.5742 3.78421L15.6446 3.85529ZM15.6229 5.14878L15.5502 5.21743L15.5502 5.21743L15.6229 5.14878ZM15.873 5.41365L15.873 5.51365L16.1049 5.51365L15.9457 5.345L15.873 5.41365ZM14.0865 5.41368L14.0865 5.31367L14.0857 5.31368L14.0865 5.41368ZM14.01 5.41429L14.0092 5.31429L14.0084 5.3143L14.01 5.41429ZM9.45688 12.9494H9.35688L9.35689 12.9506L9.45688 12.9494ZM9.45711 12.9688L9.35712 12.9699L9.35827 13.0688H9.45711V12.9688ZM11.3087 12.9494H11.2087L11.2088 12.9514L11.3087 12.9494ZM11.3087 10.0433L11.2087 10.0424V10.0433H11.3087ZM11.3091 9.99735L11.2091 9.99573L11.2091 9.99651L11.3091 9.99735ZM16.0967 7.26548L16.1762 7.32614L16.2987 7.16548H16.0967V7.26548ZM15.6035 7.91193L15.524 7.85128L15.5233 7.85214L15.6035 7.91193ZM15.5906 7.92921L15.5104 7.8694L15.5097 7.87038L15.5906 7.92921ZM15.778 9.20972L15.7173 9.28922L15.7173 9.28923L15.778 9.20972ZM17.0757 9.03521L16.9962 8.97455V8.97455L17.0757 9.03521ZM18.6002 7.03714L18.5344 6.96183L18.5268 6.96847L18.5207 6.97648L18.6002 7.03714ZM18.9172 6.33958H19.0172L19.0172 6.33883L18.9172 6.33958ZM18.9171 6.32425L18.8171 6.32327L18.8171 6.325L18.9171 6.32425ZM18.9172 6.31259L19.0172 6.31357L19.0172 6.31299L18.9172 6.31259ZM10.9993 1.1L11.0146 1.10011L11.016 0.900116L11.0007 0.900003L10.9993 1.1ZM10.9841 1.10002L11.0001 1.1L10.9999 0.9L10.9838 0.900023L10.9841 1.10002ZM1.1 11C1.1 5.53767 5.52381 1.10857 10.9841 1.10002L10.9838 0.900023C5.41318 0.908744 0.9 5.42731 0.9 11H1.1ZM11 20.9C5.53238 20.9 1.1 16.4676 1.1 11H0.9C0.9 16.5781 5.42193 21.1 11 21.1V20.9ZM20.9 11C20.9 16.4676 16.4676 20.9 11 20.9V21.1C16.5781 21.1 21.1 16.5781 21.1 11H20.9ZM20.8999 10.9538L20.9 11.0002L21.1 10.9998L21.0999 10.9533L20.8999 10.9538ZM20.9 10.9375L20.8999 10.9529L21.0999 10.9543L21.1 10.939L20.9 10.9375ZM20.0741 10.1123C20.5302 10.1123 20.9 10.4821 20.9 10.9383H21.1C21.1 10.3717 20.6407 9.91234 20.0741 9.91234V10.1123ZM19.2481 10.9383C19.2481 10.4821 19.6179 10.1123 20.0741 10.1123V9.91234C19.5075 9.91234 19.0481 10.3717 19.0481 10.9383H19.2481ZM19.1476 11.0383H19.1481V10.8383H19.1476V11.0383ZM19.2481 10.9992L19.2476 10.9375L19.0477 10.9391L19.0482 11.0008L19.2481 10.9992ZM11 19.2481C15.5553 19.2481 19.2481 15.5553 19.2481 11H19.0481C19.0481 15.4449 15.4449 19.0481 11 19.0481V19.2481ZM2.75185 11C2.75185 15.5553 6.44467 19.2481 11 19.2481V19.0481C6.55513 19.0481 2.95185 15.4449 2.95185 11H2.75185ZM11 2.75185C6.44467 2.75185 2.75185 6.44467 2.75185 11H2.95185C2.95185 6.55513 6.55513 2.95185 11 2.95185V2.75185ZM11.8259 1.92593C11.8259 2.38208 11.4562 2.75185 11 2.75185V2.95185C11.5666 2.95185 12.0259 2.49254 12.0259 1.92593H11.8259ZM11.0137 1.1001C11.4635 1.1074 11.8259 1.47436 11.8259 1.92593H12.0259C12.0259 1.36499 11.5758 0.909194 11.0169 0.900126L11.0137 1.1001ZM16.8967 3.94614L18.5919 5.74172L18.7373 5.60443L17.0422 3.80884L16.8967 3.94614ZM16.8822 3.93115L16.8976 3.94707L17.0413 3.80791L17.0259 3.79199L16.8822 3.93115ZM15.7292 3.91259C16.0561 3.60398 16.5685 3.61412 16.883 3.93191L17.0251 3.79124C16.6345 3.39641 15.9979 3.38381 15.5919 3.76716L15.7292 3.91259ZM15.7141 3.92721L15.73 3.9118L15.5911 3.76795L15.5751 3.78337L15.7141 3.92721ZM15.6956 5.08014C15.387 4.75326 15.3972 4.24082 15.7149 3.92637L15.5742 3.78421C15.1794 4.17488 15.1668 4.81138 15.5502 5.21743L15.6956 5.08014ZM15.9457 5.345L15.6956 5.08013L15.5502 5.21743L15.8003 5.48231L15.9457 5.345ZM14.0865 5.51368L15.873 5.51365L15.873 5.31365L14.0865 5.31368L14.0865 5.51368ZM14.0108 5.51428L14.0873 5.51367L14.0857 5.31368L14.0092 5.31429L14.0108 5.51428ZM9.55688 10.0433C9.55688 7.56668 11.5445 5.55428 14.0116 5.51427L14.0084 5.3143C11.4323 5.35608 9.35688 7.45731 9.35688 10.0433H9.55688ZM9.55688 12.9494V10.0433H9.35688V12.9494H9.55688ZM9.5571 12.9676L9.55688 12.9482L9.35689 12.9506L9.35712 12.9699L9.5571 12.9676ZM10.3793 12.8688H9.45711V13.0688H10.3793V12.8688ZM11.2088 12.9514C11.2078 12.9022 11.2407 12.876 11.2495 12.8698C11.2605 12.8619 11.2701 12.8587 11.2721 12.858C11.2775 12.8562 11.2798 12.8562 11.2751 12.8569C11.2674 12.858 11.2527 12.8594 11.2298 12.8608C11.1849 12.8634 11.1185 12.8651 11.0345 12.8664C10.8669 12.8688 10.6353 12.8688 10.3793 12.8688V13.0688C10.6347 13.0688 10.868 13.0688 11.0374 13.0663C11.1218 13.0651 11.1919 13.0633 11.2413 13.0604C11.2656 13.059 11.2876 13.0572 11.3047 13.0547C11.3124 13.0535 11.3241 13.0515 11.3358 13.0476C11.341 13.0459 11.353 13.0416 11.3656 13.0325C11.376 13.0252 11.4097 12.9977 11.4087 12.9474L11.2088 12.9514ZM11.2087 10.0433V12.9494H11.4087V10.0433H11.2087ZM11.2091 9.99651L11.2087 10.0424L11.4087 10.0441L11.4091 9.99818L11.2091 9.99651ZM14.0865 7.16548C12.513 7.16548 11.2345 8.42828 11.2091 9.99573L11.4091 9.99897C11.4328 8.54052 12.6224 7.36548 14.0865 7.36548V7.16548ZM16.0967 7.16548H14.0865V7.36548H16.0967V7.16548ZM15.683 7.97259L16.1762 7.32614L16.0171 7.20483L15.524 7.85128L15.683 7.97259ZM15.6708 7.989L15.6836 7.97173L15.5233 7.85214L15.5104 7.86941L15.6708 7.989ZM15.8386 9.13023C15.4811 8.85741 15.4083 8.34978 15.6715 7.98803L15.5097 7.87038C15.1828 8.31981 15.2732 8.95033 15.7173 9.28922L15.8386 9.13023ZM16.9962 8.97455C16.7196 9.3372 16.2013 9.40687 15.8386 9.13022L15.7173 9.28923C16.1678 9.63287 16.8116 9.54634 17.1552 9.09587L16.9962 8.97455ZM18.5207 6.97648L16.9962 8.97455L17.1552 9.09587L18.6797 7.0978L18.5207 6.97648ZM18.8172 6.33958C18.8172 6.58776 18.7079 6.81029 18.5344 6.96183L18.666 7.11245C18.8811 6.92455 19.0172 6.6479 19.0172 6.33958H18.8172ZM18.8171 6.325L18.8172 6.34033L19.0172 6.33883L19.0171 6.32351L18.8171 6.325ZM18.8172 6.31161L18.8171 6.32327L19.0171 6.32523L19.0172 6.31357L18.8172 6.31161ZM18.5919 5.74173C18.7421 5.90088 18.8181 6.10615 18.8172 6.31219L19.0172 6.31299C19.0183 6.05733 18.924 5.80213 18.7373 5.60442L18.5919 5.74173Z" fill="#333333"/>
</svg>
