<svg width="20" height="20" viewBox="0 0 20 20" fill="none" xmlns="http://www.w3.org/2000/svg">
<rect opacity="0.01" x="0.5" y="0.5" width="19" height="19" fill="#D8D8D8" stroke="#979797"/>
<path fill-rule="evenodd" clip-rule="evenodd" d="M10.0126 1.66672L9.99984 1.66663L9.98648 1.66664C5.39025 1.67384 1.6665 5.40203 1.6665 9.99996C1.6665 14.6023 5.39747 18.3333 9.99984 18.3333C14.6022 18.3333 18.3332 14.6023 18.3332 9.99996L18.3331 9.96128L18.3332 9.94851C18.3332 9.52238 17.9877 9.17691 17.5616 9.17691C17.1354 9.17691 16.79 9.52238 16.79 9.94851H16.7895L16.79 9.99996C16.79 13.75 13.7499 16.7901 9.99984 16.7901C6.24975 16.7901 3.20971 13.75 3.20971 9.99996C3.20971 6.24988 6.24975 3.20984 9.99984 3.20984C10.426 3.20984 10.7714 2.86438 10.7714 2.43823C10.7714 2.01635 10.4329 1.67354 10.0126 1.66672ZM16.387 5.56084L14.9744 4.06452L14.9615 4.05126C14.6677 3.75434 14.189 3.74486 13.8836 4.03318L13.8703 4.04602C13.5734 4.33982 13.5639 4.81855 13.8522 5.12393L14.0606 5.34466L12.5719 5.34468L12.5081 5.34519C10.4068 5.37927 8.71389 7.09328 8.71389 9.2027V11.6244L8.71408 11.6406H9.48254C9.9087 11.6406 10.2574 11.6406 10.2571 11.6244V9.20268L10.2574 9.16441C10.2779 7.90362 11.3063 6.88785 12.5719 6.88785H14.247L13.8361 7.42656L13.8253 7.44095C13.5794 7.77895 13.6474 8.25317 13.9814 8.50805C14.3202 8.76651 14.8044 8.70142 15.0629 8.36262L16.3333 6.69757C16.4952 6.55613 16.5975 6.34814 16.5975 6.11626L16.5974 6.10349L16.5975 6.09377C16.5983 5.9014 16.5274 5.70953 16.387 5.56084Z" fill="#333333"/>
<path d="M9.99984 1.66663L10.0006 1.56662L9.9997 1.56663L9.99984 1.66663ZM10.0126 1.66672L10.0142 1.56673L10.0133 1.56672L10.0126 1.66672ZM9.98648 1.66664L9.98634 1.56664L9.98632 1.56664L9.98648 1.66664ZM18.3332 9.99996H18.4332V9.99972L18.3332 9.99996ZM18.3331 9.96128L18.2331 9.96055L18.2331 9.96152L18.3331 9.96128ZM18.3332 9.94851L18.4332 9.94924V9.94851H18.3332ZM16.79 9.94851V10.0485H16.89V9.94851H16.79ZM16.7895 9.94851V9.84851H16.6887L16.6895 9.94932L16.7895 9.94851ZM16.79 9.99996H16.89L16.89 9.99915L16.79 9.99996ZM14.9744 4.06452L15.0471 3.99587L15.0462 3.99494L14.9744 4.06452ZM16.387 5.56084L16.3143 5.62949L16.3143 5.6295L16.387 5.56084ZM14.9615 4.05126L15.0333 3.98168L15.0326 3.98093L14.9615 4.05126ZM13.8836 4.03318L13.8149 3.96046L13.8141 3.96126L13.8836 4.03318ZM13.8703 4.04602L13.8008 3.9741L13.8 3.97494L13.8703 4.04602ZM13.8522 5.12393L13.7795 5.19258L13.7795 5.19259L13.8522 5.12393ZM14.0606 5.34466L14.0606 5.44466L14.2926 5.44466L14.1333 5.27601L14.0606 5.34466ZM12.5719 5.34468L12.5719 5.24468L12.5711 5.24468L12.5719 5.34468ZM12.5081 5.34519L12.5073 5.24519L12.5065 5.2452L12.5081 5.34519ZM8.71389 11.6244H8.61388L8.61389 11.6256L8.71389 11.6244ZM8.71408 11.6406L8.61408 11.6418L8.61524 11.7406H8.71408V11.6406ZM10.2571 11.6244H10.1571L10.1571 11.6264L10.2571 11.6244ZM10.2571 9.20268L10.1571 9.20185V9.20268H10.2571ZM10.2574 9.16441L10.1574 9.16279L10.1574 9.16357L10.2574 9.16441ZM14.247 6.88785L14.3265 6.9485L14.4491 6.78785H14.247V6.88785ZM13.8361 7.42656L13.7565 7.36591L13.7559 7.36676L13.8361 7.42656ZM13.8253 7.44095L13.7452 7.38115L13.7445 7.38213L13.8253 7.44095ZM13.9814 8.50805L13.9208 8.58755L13.9208 8.58756L13.9814 8.50805ZM15.0629 8.36262L14.9834 8.30196V8.30196L15.0629 8.36262ZM16.3333 6.69757L16.2675 6.62226L16.2599 6.62889L16.2538 6.63691L16.3333 6.69757ZM16.5975 6.11626H16.6975L16.6975 6.11552L16.5975 6.11626ZM16.5974 6.10349L16.4974 6.10251L16.4974 6.10424L16.5974 6.10349ZM16.5975 6.09377L16.6975 6.09475L16.6975 6.09417L16.5975 6.09377ZM9.9991 1.76662L10.0119 1.76672L10.0133 1.56672L10.0006 1.56663L9.9991 1.76662ZM9.98662 1.76664L9.99998 1.76663L9.9997 1.56663L9.98634 1.56664L9.98662 1.76664ZM1.7665 9.99996C1.7665 5.45721 5.44557 1.77375 9.98664 1.76664L9.98632 1.56664C5.33494 1.57393 1.5665 5.34686 1.5665 9.99996H1.7665ZM9.99984 18.2333C5.45269 18.2333 1.7665 14.5471 1.7665 9.99996H1.5665C1.5665 14.6576 5.34224 18.4333 9.99984 18.4333V18.2333ZM18.2332 9.99996C18.2332 14.5471 14.547 18.2333 9.99984 18.2333V18.4333C14.6574 18.4333 18.4332 14.6576 18.4332 9.99996H18.2332ZM18.2331 9.96152L18.2332 10.0002L18.4332 9.99972L18.4331 9.96104L18.2331 9.96152ZM18.2332 9.94778L18.2331 9.96055L18.4331 9.96202L18.4332 9.94924L18.2332 9.94778ZM17.5616 9.27691C17.9325 9.27691 18.2332 9.5776 18.2332 9.94851H18.4332C18.4332 9.46715 18.0429 9.07691 17.5616 9.07691V9.27691ZM16.89 9.94851C16.89 9.5776 17.1906 9.27691 17.5616 9.27691V9.07691C17.0802 9.07691 16.69 9.46715 16.69 9.94851H16.89ZM16.7895 10.0485H16.79V9.84851H16.7895V10.0485ZM16.89 9.99915L16.8895 9.94771L16.6895 9.94932L16.69 10.0008L16.89 9.99915ZM9.99984 16.8901C13.8051 16.8901 16.89 13.8053 16.89 9.99996H16.69C16.69 13.6948 13.6947 16.6901 9.99984 16.6901V16.8901ZM3.10971 9.99996C3.10971 13.8053 6.19453 16.8901 9.99984 16.8901V16.6901C6.30498 16.6901 3.30971 13.6948 3.30971 9.99996H3.10971ZM9.99984 3.10984C6.19453 3.10984 3.10971 6.19465 3.10971 9.99996H3.30971C3.30971 6.30511 6.30498 3.30984 9.99984 3.30984V3.10984ZM10.6714 2.43823C10.6714 2.80916 10.3708 3.10984 9.99984 3.10984V3.30984C10.4812 3.30984 10.8714 2.91961 10.8714 2.43823H10.6714ZM10.011 1.76671C10.3767 1.77264 10.6714 2.07104 10.6714 2.43823H10.8714C10.8714 1.96167 10.489 1.57444 10.0142 1.56673L10.011 1.76671ZM14.9016 4.13317L16.3143 5.62949L16.4597 5.4922L15.0471 3.99588L14.9016 4.13317ZM14.8897 4.12084L14.9025 4.1341L15.0462 3.99494L15.0333 3.98168L14.8897 4.12084ZM13.9523 4.10589C14.218 3.85495 14.6347 3.86319 14.8904 4.1216L15.0326 3.98093C14.7007 3.64548 14.1599 3.63477 13.815 3.96046L13.9523 4.10589ZM13.9398 4.11794L13.9531 4.1051L13.8141 3.96126L13.8008 3.9741L13.9398 4.11794ZM13.9249 5.05529C13.674 4.78949 13.6823 4.37279 13.9406 4.11711L13.8 3.97494C13.4645 4.30685 13.4538 4.84761 13.7795 5.19258L13.9249 5.05529ZM14.1333 5.27601L13.9249 5.05528L13.7795 5.19259L13.9879 5.41331L14.1333 5.27601ZM12.5719 5.44468L14.0606 5.44466L14.0606 5.24466L12.5719 5.24468L12.5719 5.44468ZM12.5089 5.44518L12.5727 5.44468L12.5711 5.24468L12.5073 5.24519L12.5089 5.44518ZM8.81389 9.2027C8.81389 7.14797 10.4629 5.47837 12.5097 5.44517L12.5065 5.2452C10.3507 5.28016 8.61389 7.03859 8.61389 9.2027H8.81389ZM8.81389 11.6244V9.2027H8.61389V11.6244H8.81389ZM8.81407 11.6394L8.81388 11.6233L8.61389 11.6256L8.61408 11.6418L8.81407 11.6394ZM9.48254 11.5406H8.71408V11.7406H9.48254V11.5406ZM10.1571 11.6264C10.1561 11.5772 10.1892 11.5508 10.198 11.5445C10.2092 11.5365 10.219 11.5333 10.2213 11.5325C10.2272 11.5305 10.2303 11.5303 10.2266 11.5309C10.2209 11.5317 10.2094 11.5328 10.1904 11.5339C10.1534 11.5361 10.0983 11.5376 10.0283 11.5386C9.88879 11.5406 9.69592 11.5406 9.48254 11.5406V11.7406C9.69532 11.7406 9.88989 11.7406 10.0312 11.7386C10.1016 11.7375 10.1603 11.736 10.2019 11.7336C10.2222 11.7324 10.2412 11.7309 10.2562 11.7287C10.2629 11.7277 10.2738 11.7258 10.285 11.7221C10.2899 11.7204 10.3017 11.7162 10.3142 11.7073C10.3244 11.7 10.3581 11.6727 10.3571 11.6225L10.1571 11.6264ZM10.1571 9.20268V11.6244H10.3571V9.20268H10.1571ZM10.1574 9.16357L10.1571 9.20185L10.3571 9.20352L10.3574 9.16524L10.1574 9.16357ZM12.5719 6.78785C11.2516 6.78785 10.1788 7.8475 10.1574 9.16279L10.3574 9.16603C10.377 7.95974 11.3609 6.98785 12.5719 6.98785V6.78785ZM14.247 6.78785H12.5719V6.98785H14.247V6.78785ZM13.9156 7.48722L14.3265 6.9485L14.1675 6.8272L13.7565 7.36591L13.9156 7.48722ZM13.9055 7.50075L13.9162 7.48636L13.7559 7.36676L13.7452 7.38116L13.9055 7.50075ZM14.0421 8.42855C13.7514 8.20671 13.6922 7.79393 13.9062 7.49978L13.7445 7.38213C13.4667 7.76396 13.5435 8.29964 13.9208 8.58755L14.0421 8.42855ZM14.9834 8.30196C14.7584 8.59686 14.337 8.65351 14.0421 8.42855L13.9208 8.58756C14.3035 8.87951 14.8504 8.80599 15.1424 8.42328L14.9834 8.30196ZM16.2538 6.63691L14.9834 8.30196L15.1424 8.42328L16.4128 6.75823L16.2538 6.63691ZM16.4975 6.11626C16.4975 6.31807 16.4086 6.499 16.2675 6.62226L16.3991 6.77288C16.5818 6.61326 16.6975 6.37821 16.6975 6.11626H16.4975ZM16.4974 6.10424L16.4975 6.11701L16.6975 6.11552L16.6974 6.10275L16.4974 6.10424ZM16.4975 6.09279L16.4974 6.10251L16.6974 6.10447L16.6975 6.09475L16.4975 6.09279ZM16.3143 5.6295C16.4365 5.75891 16.4982 5.92581 16.4975 6.09337L16.6975 6.09417C16.6984 5.87699 16.6183 5.66016 16.4597 5.49219L16.3143 5.6295Z" fill="#333333"/>
</svg>
