<svg width="26" height="10" viewBox="0 0 26 10" fill="none" xmlns="http://www.w3.org/2000/svg">
<path d="M0 6C0 2.68629 2.68629 0 6 0H26V4C26 7.31371 23.3137 10 20 10H0V6Z" fill="url(#paint0_linear)"/>
<path d="M6.71875 6.10156C6.67448 6.49479 6.54036 6.84375 6.31641 7.14844C6.09245 7.45052 5.80078 7.68359 5.44141 7.84766C5.08203 8.00911 4.69401 8.08594 4.27734 8.07812C3.90234 8.07031 3.57552 7.98438 3.29688 7.82031C3.01823 7.65365 2.79818 7.41406 2.63672 7.10156C2.47786 6.78646 2.38802 6.42448 2.36719 6.01562C2.34896 5.69531 2.38151 5.29688 2.46484 4.82031C2.55078 4.34375 2.70182 3.92057 2.91797 3.55078C3.13672 3.18099 3.39583 2.88802 3.69531 2.67188C4.11719 2.36979 4.59896 2.22396 5.14062 2.23438C5.72917 2.24479 6.19531 2.42708 6.53906 2.78125C6.88542 3.13281 7.07552 3.6224 7.10938 4.25L5.96875 4.24609C5.96875 3.88672 5.89714 3.6237 5.75391 3.45703C5.61068 3.29036 5.38802 3.20182 5.08594 3.19141C4.69531 3.17839 4.3737 3.31771 4.12109 3.60938C3.87109 3.90104 3.70312 4.32682 3.61719 4.88672C3.53385 5.43099 3.4974 5.83854 3.50781 6.10938C3.52083 6.45312 3.59766 6.70703 3.73828 6.87109C3.87891 7.03255 4.07552 7.11719 4.32812 7.125C4.67708 7.13802 4.95573 7.05599 5.16406 6.87891C5.375 6.69922 5.51432 6.44271 5.58203 6.10938L6.71875 6.10156ZM11.6992 8H10.5547L10.9766 5.5625H8.76953L8.34375 8H7.19922L8.1875 2.3125H9.33203L8.92969 4.61719H11.1406L11.5391 2.3125H12.6836L11.6992 8ZM13.9414 8H12.7969L13.7812 2.3125H14.9258L13.9414 8ZM18.7812 5.53516H16.6016L16.3359 7.05859H18.8984L18.7344 8H15.0273L16.0156 2.3125H19.7148L19.5469 3.26172H16.9961L16.7578 4.61719H18.9453L18.7812 5.53516ZM23.1641 5.67578H20.9844L20.5781 8H19.4336L20.4219 2.3125H24.0234L23.8555 3.26172H21.4023L21.1445 4.73047H23.332L23.1641 5.67578Z" fill="white"/>
<defs>
<linearGradient id="paint0_linear" x1="-8.15197" y1="3.25168" x2="-4.80236" y2="16.6432" gradientUnits="userSpaceOnUse">
<stop stop-color="#FF5A5A"/>
<stop offset="1" stop-color="#FFD932"/>
</linearGradient>
</defs>
</svg>
