<svg width="20" height="20" viewBox="0 0 20 20" fill="none" xmlns="http://www.w3.org/2000/svg">
<path fill-rule="evenodd" clip-rule="evenodd" d="M15.7046 4.29537C15.3108 3.90154 14.6723 3.90154 14.2785 4.29537L10 8.57384L5.72153 4.29538C5.32771 3.90156 4.6892 3.90156 4.29537 4.29538C3.90155 4.6892 3.90155 5.32771 4.29537 5.72153L8.57384 9.99999L4.29537 14.2785C3.90154 14.6723 3.90154 15.3108 4.29537 15.7046C4.68919 16.0984 5.3277 16.0984 5.72153 15.7046L10 11.4261L14.2785 15.7046C14.6723 16.0984 15.3108 16.0984 15.7046 15.7046C16.0985 15.3108 16.0985 14.6723 15.7046 14.2785L11.4262 9.99999L15.7046 5.72152C16.0985 5.3277 16.0985 4.68919 15.7046 4.29537Z" fill="#333333"/>
</svg>
