<svg width="50" height="50" viewBox="0 0 50 50" fill="none" xmlns="http://www.w3.org/2000/svg">
<circle cx="25" cy="25" r="25" fill="#F5F5F5"/>
<path fill-rule="evenodd" clip-rule="evenodd" d="M25.3362 34.3368C25.1188 34.2592 24.8812 34.2592 24.6638 34.3368L17.8779 36.7589C17.2157 36.9953 16.5228 36.4925 16.5421 35.7897L16.7405 28.5554C16.7468 28.3261 16.6741 28.1016 16.5345 27.9196L12.1352 22.1812C11.7084 21.6245 11.9725 20.8129 12.6451 20.6139L19.56 18.5682C19.7808 18.5029 19.9723 18.3634 20.1021 18.1732L24.1742 12.2095C24.5712 11.628 25.4288 11.628 25.8258 12.2095L29.8979 18.1732C30.0277 18.3634 30.2192 18.5029 30.44 18.5682L37.3549 20.6139C38.0275 20.8129 38.2916 21.6245 37.8648 22.1812L33.4655 27.9196C33.3259 28.1016 33.2532 28.3261 33.2595 28.5554L33.4579 35.7897C33.4772 36.4925 32.7843 36.9953 32.1221 36.7589L25.3362 34.3368Z" fill="#FF603E"/>
</svg>
