<svg width="30" height="30" viewBox="0 0 30 30" fill="none" xmlns="http://www.w3.org/2000/svg">
<path fill-rule="evenodd" clip-rule="evenodd" d="M25 8.59604C25 7.30036 23.9496 6.25 22.654 6.25H7.34604C6.05036 6.25 5 7.30036 5 8.59604V20.8341C5 22.1298 6.05036 23.1802 7.34604 23.1802H11.3057C11.5345 23.1802 11.7583 23.2471 11.9495 23.3726L14.6746 25.1617C14.8678 25.2886 15.1176 25.2901 15.3124 25.1656L18.1293 23.3648C18.318 23.2442 18.5372 23.1802 18.7611 23.1802H22.654C23.9496 23.1802 25 22.1298 25 20.8341V8.59604ZM9.06647 15.0517C9.06647 14.2959 9.67918 13.6832 10.435 13.6832C11.1908 13.6832 11.8035 14.2959 11.8035 15.0517C11.8035 15.8075 11.1908 16.4202 10.435 16.4202C9.67918 16.4202 9.06647 15.8075 9.06647 15.0517ZM14.9903 13.6832C14.2344 13.6832 13.6217 14.2959 13.6217 15.0517C13.6217 15.8075 14.2344 16.4202 14.9903 16.4202C15.7461 16.4202 16.3588 15.8075 16.3588 15.0517C16.3588 14.2959 15.7461 13.6832 14.9903 13.6832ZM18.1769 15.0517C18.1769 14.2959 18.7896 13.6832 19.5455 13.6832C20.3013 13.6832 20.914 14.2959 20.914 15.0517C20.914 15.8075 20.3013 16.4202 19.5455 16.4202C18.7896 16.4202 18.1769 15.8075 18.1769 15.0517Z" fill="white"/>
</svg>
