<svg width="24" height="24" viewBox="0 0 24 24" fill="none" xmlns="http://www.w3.org/2000/svg">
<path fill-rule="evenodd" clip-rule="evenodd" d="M20 6.87683C20 5.84029 19.1597 5 18.1232 5H5.87683C4.84029 5 4 5.84029 4 6.87683V16.6673C4 17.7038 4.84029 18.5441 5.87683 18.5441H9.04458C9.2276 18.5441 9.40663 18.5977 9.55962 18.6981L11.7397 20.1294C11.8943 20.2309 12.0941 20.2321 12.2499 20.1325L14.5034 18.6919C14.6544 18.5954 14.8298 18.5441 15.0089 18.5441H18.1232C19.1597 18.5441 20 17.7038 20 16.6673V6.87683ZM7.25317 12.0414C7.25317 11.4367 7.74334 10.9465 8.34799 10.9465C8.95265 10.9465 9.44281 11.4367 9.44281 12.0414C9.44281 12.646 8.95265 13.1362 8.34799 13.1362C7.74334 13.1362 7.25317 12.646 7.25317 12.0414ZM11.9922 10.9465C11.3875 10.9465 10.8974 11.4367 10.8974 12.0414C10.8974 12.646 11.3875 13.1362 11.9922 13.1362C12.5969 13.1362 13.087 12.646 13.087 12.0414C13.087 11.4367 12.5969 10.9465 11.9922 10.9465ZM14.5415 12.0414C14.5415 11.4367 15.0317 10.9465 15.6364 10.9465C16.241 10.9465 16.7312 11.4367 16.7312 12.0414C16.7312 12.646 16.241 13.1362 15.6364 13.1362C15.0317 13.1362 14.5415 12.646 14.5415 12.0414Z" fill="white"/>
</svg>
