<svg width="24" height="24" viewBox="0 0 24 24" fill="none" xmlns="http://www.w3.org/2000/svg">
<rect opacity="0.01" width="24" height="24" fill="white"/>
<path fill-rule="evenodd" clip-rule="evenodd" d="M16.0888 2.68914L21.3126 7.91288C22.6102 9.21048 22.6102 11.3219 21.3126 12.6195L14.0267 19.9054H20.4095C20.7695 19.9054 21.0613 20.1972 21.0613 20.5572C21.0613 20.9172 20.7695 21.2091 20.4095 21.2091H3.6241C3.26409 21.2091 2.97226 20.9172 2.97226 20.5572C2.97226 20.1972 3.26409 19.9054 3.6241 19.9054H6.50564L2.68914 16.0889C2.06055 15.4603 1.71436 14.6245 1.71436 13.7355C1.71436 12.8466 2.06055 12.0108 2.68914 11.3822L11.3822 2.68914C12.0108 2.06055 12.8466 1.71436 13.7355 1.71436C14.6245 1.71436 15.4603 2.06055 16.0888 2.68914ZM12.183 19.9054L20.3908 11.6977C21.18 10.9084 21.18 9.62414 20.3908 8.83483L15.167 3.61109C14.7847 3.22873 14.2763 3.01816 13.7356 3.01816C13.1948 3.01816 12.6865 3.22873 12.3041 3.61109L3.61104 12.3042C3.22868 12.6865 3.01812 13.1949 3.01812 13.7356C3.01812 14.2763 3.22868 14.7847 3.61104 15.167L8.34936 19.9054H12.183Z" fill="#333333"/>
<path d="M21.3126 7.91288L21.454 7.77146L21.3126 7.91288ZM16.0888 2.68914L15.9474 2.83056L16.0888 2.68914ZM21.3126 12.6195L21.454 12.7609L21.454 12.7609L21.3126 12.6195ZM14.0267 19.9054L13.8853 19.7639L13.5439 20.1054H14.0267V19.9054ZM6.50564 19.9054V20.1054H6.98849L6.64707 19.7639L6.50564 19.9054ZM2.68914 16.0889L2.83056 15.9474L2.68914 16.0889ZM2.68914 11.3822L2.54772 11.2408L2.68914 11.3822ZM11.3822 2.68914L11.5236 2.83056L11.5237 2.83056L11.3822 2.68914ZM20.3908 11.6977L20.2493 11.5563H20.2493L20.3908 11.6977ZM12.183 19.9054V20.1054H12.2659L12.3244 20.0469L12.183 19.9054ZM20.3908 8.83483L20.5322 8.69341L20.5322 8.69341L20.3908 8.83483ZM15.167 3.61109L15.0256 3.75251L15.167 3.61109ZM12.3041 3.61109L12.4456 3.75251L12.4456 3.75251L12.3041 3.61109ZM3.61104 12.3042L3.75246 12.4456H3.75246L3.61104 12.3042ZM3.61104 15.167L3.75246 15.0256L3.75246 15.0256L3.61104 15.167ZM8.34936 19.9054L8.20794 20.0469L8.26652 20.1054H8.34936V19.9054ZM21.454 7.77146L16.2303 2.54772L15.9474 2.83056L21.1712 8.0543L21.454 7.77146ZM21.454 12.7609C22.8297 11.3852 22.8297 9.14716 21.454 7.77146L21.1712 8.0543C22.3907 9.2738 22.3907 11.2585 21.1712 12.4781L21.454 12.7609ZM14.1681 20.0468L21.454 12.7609L21.1712 12.4781L13.8853 19.7639L14.1681 20.0468ZM20.4095 19.7054H14.0267V20.1054H20.4095V19.7054ZM21.2613 20.5572C21.2613 20.0868 20.88 19.7054 20.4095 19.7054V20.1054C20.659 20.1054 20.8613 20.3077 20.8613 20.5572H21.2613ZM20.4095 21.4091C20.88 21.4091 21.2613 21.0277 21.2613 20.5572H20.8613C20.8613 20.8068 20.659 21.0091 20.4095 21.0091V21.4091ZM3.6241 21.4091H20.4095V21.0091H3.6241V21.4091ZM2.77226 20.5572C2.77226 21.0277 3.15364 21.4091 3.6241 21.4091V21.0091C3.37455 21.0091 3.17226 20.8068 3.17226 20.5572H2.77226ZM3.6241 19.7054C3.15364 19.7054 2.77226 20.0868 2.77226 20.5572H3.17226C3.17226 20.3077 3.37455 20.1054 3.6241 20.1054V19.7054ZM6.50564 19.7054H3.6241V20.1054H6.50564V19.7054ZM2.54772 16.2303L6.36422 20.0468L6.64707 19.7639L2.83056 15.9474L2.54772 16.2303ZM1.51436 13.7355C1.51436 14.6776 1.88163 15.5642 2.54772 16.2303L2.83056 15.9474C2.23948 15.3564 1.91436 14.5715 1.91436 13.7355H1.51436ZM2.54772 11.2408C1.88163 11.9069 1.51436 12.7935 1.51436 13.7355H1.91436C1.91436 12.8996 2.23948 12.1147 2.83056 11.5236L2.54772 11.2408ZM11.2408 2.54772L2.54772 11.2408L2.83056 11.5236L11.5236 2.83056L11.2408 2.54772ZM13.7355 1.51436C12.7935 1.51436 11.9069 1.88163 11.2408 2.54772L11.5237 2.83056C12.1147 2.23948 12.8996 1.91436 13.7355 1.91436V1.51436ZM16.2303 2.54772C15.5642 1.88163 14.6775 1.51436 13.7355 1.51436V1.91436C14.5714 1.91436 15.3563 2.23948 15.9474 2.83056L16.2303 2.54772ZM20.2493 11.5563L12.0416 19.764L12.3244 20.0469L20.5322 11.8391L20.2493 11.5563ZM20.2493 8.97625C20.9605 9.68745 20.9605 10.8451 20.2493 11.5563L20.5322 11.8391C21.3996 10.9717 21.3996 9.56082 20.5322 8.69341L20.2493 8.97625ZM15.0256 3.75251L20.2493 8.97625L20.5322 8.69341L15.3084 3.46967L15.0256 3.75251ZM13.7356 3.21816C14.2233 3.21816 14.6807 3.40766 15.0256 3.75251L15.3084 3.46967C14.8886 3.0498 14.3293 2.81816 13.7356 2.81816V3.21816ZM12.4456 3.75251C12.7904 3.40766 13.2479 3.21816 13.7356 3.21816V2.81816C13.1418 2.81816 12.5826 3.0498 12.1627 3.46967L12.4456 3.75251ZM3.75246 12.4456L12.4456 3.75251L12.1627 3.46967L3.46962 12.1628L3.75246 12.4456ZM3.21812 13.7356C3.21812 13.2479 3.40761 12.7905 3.75246 12.4456L3.46962 12.1628C3.04975 12.5826 2.81812 13.1419 2.81812 13.7356H3.21812ZM3.75246 15.0256C3.40761 14.6808 3.21812 14.2233 3.21812 13.7356H2.81812C2.81812 14.3294 3.04975 14.8886 3.46962 15.3085L3.75246 15.0256ZM8.49079 19.764L3.75246 15.0256L3.46962 15.3085L8.20794 20.0469L8.49079 19.764ZM12.183 19.7054H8.34936V20.1054H12.183V19.7054Z" fill="#333333"/>
<path fill-rule="evenodd" clip-rule="evenodd" d="M14.6718 9.24015L12.8535 14.695L9.21697 11.0584L14.6718 9.24015Z" fill="#333333"/>
</svg>
