<svg width="50" height="50" viewBox="0 0 50 50" fill="none" xmlns="http://www.w3.org/2000/svg">
<path d="M0 25C0 38.8071 11.1929 50 25 50C38.8071 50 50 38.8071 50 25C50 11.1929 38.8071 0 25 0C11.1929 0 0 11.1929 0 25Z" fill="#FFD932"/>
<path d="M30.0073 23.0614C29.9935 23.0338 29.9843 23.0062 29.9705 22.9786C29.9659 22.974 29.9659 22.9694 29.9613 22.9602C29.6304 22.2938 28.918 21.8618 28.1275 21.9215C27.0933 22.0042 26.3166 22.9097 26.3993 23.9438C26.4223 24.2104 26.4959 24.454 26.6108 24.6746C27.1347 25.8558 26.9049 27.2944 25.9397 28.2642L20.884 33.3291C19.6293 34.5838 17.5886 34.5838 16.3338 33.3291C15.0791 32.0743 15.0791 30.0337 16.3338 28.7789L18.2182 26.8945L18.2045 26.8807C18.6411 26.5038 18.8939 25.9293 18.8479 25.3135C18.7652 24.2793 17.8597 23.5026 16.8256 23.5853C16.3292 23.6221 15.8972 23.8519 15.5847 24.192L15.5801 24.1874L13.6589 26.1086C10.9288 28.8387 10.9288 33.2601 13.6589 35.9902C16.389 38.7203 20.8105 38.7203 23.5405 35.9902L28.6101 30.9207C30.7335 28.7927 31.1931 25.6444 30.0073 23.0614Z" fill="#333333"/>
<path d="M36.6488 13.4187C33.9188 10.6886 29.4973 10.6886 26.7672 13.4187L21.6977 18.4882C19.5743 20.6116 19.1147 23.7599 20.2959 26.3429C20.3097 26.3705 20.3188 26.3981 20.3326 26.4257C20.3372 26.4303 20.3372 26.4349 20.3418 26.4441C20.6727 27.1105 21.3851 27.5425 22.1757 27.4828C23.2098 27.4 23.9865 26.4946 23.9038 25.4605C23.8808 25.1939 23.8073 24.9503 23.6924 24.7297C23.1684 23.5485 23.3982 22.1099 24.3634 21.1401L29.4237 16.0798C30.6785 14.8251 32.7192 14.8251 33.9739 16.0798C35.2286 17.3346 35.2286 19.3752 33.9739 20.63L32.0895 22.5144L32.1033 22.5282C31.6667 22.905 31.4139 23.4796 31.4598 24.0954C31.5426 25.1296 32.448 25.9063 33.4821 25.8236C33.9785 25.7868 34.4105 25.557 34.7231 25.2169L34.7277 25.2215L36.6488 23.3003C39.3743 20.5702 39.3743 16.1442 36.6488 13.4187Z" fill="#333333"/>
</svg>
