<svg width="20" height="20" viewBox="0 0 20 20" fill="none" xmlns="http://www.w3.org/2000/svg">
<rect opacity="0.01" width="20" height="20" fill="#D8D8D8"/>
<circle opacity="0.3" cx="9.99984" cy="9.99996" r="8.33333" fill="#111111"/>
<path fill-rule="evenodd" clip-rule="evenodd" d="M8.92815 7.8572C8.6323 7.56135 8.15263 7.56135 7.85678 7.8572C7.56092 8.15306 7.56092 8.63273 7.85678 8.92858L8.92818 9.99998L7.85683 11.0713C7.56098 11.3672 7.56098 11.8469 7.85683 12.1427C8.15268 12.4386 8.63235 12.4386 8.92821 12.1427L9.99955 11.0714L11.0709 12.1427C11.3667 12.4386 11.8464 12.4386 12.1423 12.1427C12.4381 11.8468 12.4381 11.3672 12.1423 11.0713L11.0709 9.99998L12.1423 8.92858C12.4382 8.63273 12.4382 8.15306 12.1423 7.85721C11.8465 7.56136 11.3668 7.56136 11.071 7.85721L9.99956 8.92861L8.92815 7.8572Z" fill="#666666"/>
</svg>
