<svg width="24" height="24" viewBox="0 0 24 24" fill="none" xmlns="http://www.w3.org/2000/svg">
<path fill-rule="evenodd" clip-rule="evenodd" d="M18.6277 11.557C18.6277 11.0586 19.0338 10.6709 19.5138 10.6709L19.5138 10.6709C19.9938 10.6709 20.4 11.0586 20.4 11.557V19.5139C20.4 19.7539 20.3077 19.9755 20.1415 20.1416C19.9754 20.3078 19.7538 20.4001 19.5138 20.4001H4.48612C4.24612 20.4001 4.02458 20.3078 3.85843 20.1416C3.69228 19.9755 3.59998 19.7539 3.59998 19.5139V4.48625C3.59998 3.98779 4.00613 3.6001 4.48612 3.6001H12.4615C12.9415 3.6001 13.3292 4.00624 13.3292 4.48625C13.3107 4.9847 12.9231 5.37241 12.443 5.37241H5.37229V18.6278H18.6277V11.557ZM10.0615 15.0093C9.72918 15.3601 9.17534 15.3601 8.82456 15.0093C8.47379 14.6586 8.47379 14.1047 8.82456 13.754L18.48 4.09856C18.8123 3.74779 19.3661 3.74779 19.7169 4.09856C20.0677 4.44934 20.0677 5.00318 19.7169 5.35395L10.0615 15.0093Z" fill="#2C2C2C"/>
</svg>
