<svg width="24" height="24" viewBox="0 0 24 24" fill="none" xmlns="http://www.w3.org/2000/svg">
<path d="M21.6659 6.44281C21.7714 6.34279 21.8555 6.22231 21.9129 6.08873C21.9704 5.95515 22 5.81127 22 5.66586C22 5.52045 21.9704 5.37657 21.9129 5.24299C21.8555 5.10941 21.7714 4.98893 21.6659 4.88891L19.112 2.33242C19.0114 2.22733 18.8905 2.14371 18.7567 2.08658C18.6228 2.02945 18.4788 2 18.3333 2C18.1878 2 18.0438 2.02945 17.91 2.08658C17.7762 2.14371 17.6553 2.22733 17.5546 2.33242L16.1712 3.71501C16.09 3.79602 16.0256 3.89225 15.9816 3.99819C15.9377 4.10413 15.915 4.2177 15.915 4.3324C15.915 4.44709 15.9377 4.56066 15.9816 4.6666C16.0256 4.77254 16.09 4.86877 16.1712 4.94978L19.125 7.9028C19.209 7.98675 19.3091 8.05271 19.4194 8.09664C19.5297 8.14057 19.6478 8.16155 19.7664 8.15829C19.8851 8.15504 20.0019 8.12762 20.1096 8.07771C20.2173 8.0278 20.3137 7.95644 20.3929 7.86801L21.6659 6.44368V6.44281ZM2 18.1383V21.1279C2 21.6079 2.3913 21.9992 2.87303 21.9992H5.85822C6.09039 21.9992 6.31387 21.9061 6.47822 21.7409L17.8329 10.2828C17.9953 10.1188 18.0862 9.8972 18.0855 9.66641C18.0849 9.43562 17.9928 9.21449 17.8294 9.05148L14.8407 6.06455C14.7595 5.98338 14.663 5.91904 14.5568 5.87522C14.4506 5.83141 14.3368 5.80898 14.2219 5.80922C14.1071 5.80946 13.9934 5.83237 13.8874 5.87664C13.7814 5.9209 13.6852 5.98564 13.6042 6.06716L2.25304 17.5227C2.09043 17.6862 2 17.907 2 18.1375V18.1383Z" fill="#333333"/>
</svg>
