<svg width="44" height="44" viewBox="0 0 44 44" fill="none" xmlns="http://www.w3.org/2000/svg">
<circle cx="22" cy="22" r="22" fill="white" fill-opacity="0.2"/>
<path d="M17.1458 29C16.7194 29 16.2947 28.8842 15.9333 28.6572C15.3494 28.2909 15 27.6852 15 27.0371V16.9629C15 15.8813 15.9624 15 17.1475 15H26.8525C28.0358 15 29 15.8797 29 16.9629V27.0371C29 27.6852 28.6506 28.2909 28.0667 28.6556C27.4827 29.0219 26.7377 29.1002 26.0767 28.8654L22.2235 27.4973C22.0796 27.4457 21.9221 27.4457 21.7782 27.4973L17.925 28.8654C17.6716 28.9562 17.4078 29 17.1458 29Z" fill="white"/>
</svg>
