<svg width="50" height="50" viewBox="0 0 50 50" fill="none" xmlns="http://www.w3.org/2000/svg">
<path d="M49.9979 25.1541C49.9979 11.2606 38.8058 0 24.999 0C11.1921 0 0 11.2606 0 25.1541C0 37.7059 9.14205 48.1113 21.0925 49.9979V32.4236H14.7464V25.152H21.0925V19.6118C21.0925 13.3065 24.826 9.82476 30.5346 9.82476C33.2701 9.82476 36.1307 10.3153 36.1307 10.3153V16.5053H32.9805C29.8762 16.5053 28.9075 18.4442 28.9075 20.4335V25.1541H35.8411L34.7327 32.4257H28.9075V50C40.858 48.1134 50 37.708 50 25.1541H49.9979Z" fill="#0474FA"/>
</svg>
