<svg width="40" height="40" viewBox="0 0 40 40" fill="none" xmlns="http://www.w3.org/2000/svg">
<circle cx="20" cy="20" r="20" fill="#444444"/>
<path d="M11.507 29C11.507 29 11 28.775 11 28.505C11 25.4675 13.7825 22.4615 17.1695 21.407C15.3365 20.495 14.0765 18.641 14.0765 16.499C14.0765 13.4615 16.5965 11 19.7075 11C22.817 11 25.337 13.4615 25.337 16.499C25.337 18.6245 24.092 20.48 22.277 21.3905C22.277 21.3905 19.9025 22.286 20.1485 24.923C20.345 27.017 21.998 28.121 22.784 28.616C23.159 28.856 23.4215 29 23.4215 29H11.507ZM28.9865 24.4595C29.0195 25.994 27.791 27.401 25.55 28.5695C25.4864 28.6011 25.4163 28.6175 25.3453 28.6175C25.2742 28.6175 25.2041 28.6011 25.1405 28.5695C21.425 26.762 21.7355 24.5885 21.752 24.4925C21.752 24.4595 21.752 23.5655 22.3745 22.958C22.7015 22.622 23.144 22.463 23.6675 22.463C24.47 22.463 25.01 22.829 25.337 23.2445C25.6805 22.829 26.222 22.4615 26.99 22.4615C28.955 22.4615 29.0525 24.3485 28.9865 24.4595Z" fill="white"/>
</svg>
