<svg width="24" height="24" viewBox="0 0 24 24" fill="none" xmlns="http://www.w3.org/2000/svg">
<path d="M18.2957 8.70376L17.6819 8.0901C17.4431 7.85145 17.3067 7.52757 17.3067 7.1875V6.30876C17.3067 4.89392 16.1557 3.74415 14.7403 3.74415H13.8621C13.5211 3.74415 13.1971 3.60693 12.9583 3.36828L12.3359 2.74695C11.3298 1.74974 9.70132 1.74974 8.70375 2.75462L8.08986 3.36828C7.85113 3.60693 7.52713 3.74415 7.18609 3.74415H6.30789C4.89253 3.74415 3.74149 4.89392 3.74149 6.30876V7.17812C3.74149 7.52757 3.60507 7.85145 3.36634 8.0901L2.74393 8.71314C1.74636 9.71801 1.75488 11.3468 2.75245 12.3431L3.36634 12.9483C3.60507 13.1954 3.74149 13.5193 3.74149 13.8611V14.7381C3.74149 16.153 4.89253 17.3045 6.30789 17.3045H7.18609C7.52713 17.3045 7.85113 17.44 8.08986 17.6786L8.71228 18.3017C9.21533 18.796 9.87184 19.0423 10.5284 19.0423C11.1849 19.0423 11.8414 18.796 12.3444 18.2923L12.9583 17.6786C13.1971 17.44 13.5211 17.3045 13.8621 17.3045H14.7403C16.1557 17.3045 17.3067 16.153 17.3067 14.7381V13.8611C17.3067 13.5193 17.4431 13.1954 17.6819 12.9568L18.2872 12.3517C18.2957 12.3431 18.3043 12.3355 18.3128 12.3261C18.7903 11.8411 19.0546 11.1925 19.0461 10.5107C19.0461 9.82881 18.7817 9.18106 18.2957 8.70376Z" fill="url(#paint0_linear)"/>
<g opacity="0.5" filter="url(#filter0_f)">
<path d="M15.6693 9.31787L15.2629 8.91157C15.1048 8.75356 15.0145 8.53913 15.0145 8.31397V7.73217C15.0145 6.79542 14.2524 6.03418 13.3153 6.03418H12.7339C12.5081 6.03418 12.2936 5.94332 12.1355 5.78532L11.7234 5.37394C11.0573 4.7137 9.97907 4.7137 9.3186 5.37902L8.91215 5.78532C8.75409 5.94332 8.53957 6.03418 8.31377 6.03418H7.73232C6.79524 6.03418 6.03315 6.79542 6.03315 7.73217V8.30776C6.03315 8.53913 5.94283 8.75356 5.78476 8.91157L5.37267 9.32408C4.71219 9.98939 4.71784 11.0678 5.37832 11.7275L5.78476 12.1281C5.94283 12.2918 6.03315 12.5062 6.03315 12.7325V13.3132C6.03315 14.2499 6.79524 15.0123 7.73232 15.0123H8.31377C8.53957 15.0123 8.75409 15.102 8.91215 15.26L9.32424 15.6725C9.6573 15.9998 10.092 16.1629 10.5266 16.1629C10.9613 16.1629 11.396 15.9998 11.7291 15.6663L12.1355 15.26C12.2936 15.102 12.5081 15.0123 12.7339 15.0123H13.3153C14.2524 15.0123 15.0145 14.2499 15.0145 13.3132V12.7325C15.0145 12.5062 15.1048 12.2918 15.2629 12.1338L15.6637 11.7331C15.6693 11.7275 15.675 11.7224 15.6806 11.7162C15.9967 11.3951 16.1717 10.9656 16.1661 10.5142C16.1661 10.0628 15.9911 9.63388 15.6693 9.31787Z" fill="#E46800"/>
</g>
<g filter="url(#filter1_b)">
<mask id="path-3-outside-1" maskUnits="userSpaceOnUse" x="3.95679" y="3.95764" width="20" height="20" fill="black">
<rect fill="white" x="3.95679" y="3.95764" width="20" height="20"/>
<path d="M21.2525 11.6614L20.6386 11.0477C20.3999 10.8091 20.2635 10.4852 20.2635 10.1451V9.26641C20.2635 7.85157 19.1125 6.7018 17.6971 6.7018H16.8189C16.4779 6.7018 16.1539 6.56457 15.9151 6.32593L15.2927 5.70459C14.2866 4.70738 12.6581 4.70738 11.6605 5.71226L11.0467 6.32593C10.8079 6.56457 10.4839 6.7018 10.1429 6.7018H9.26467C7.84932 6.7018 6.69828 7.85157 6.69828 9.26641V10.1358C6.69828 10.4852 6.56186 10.8091 6.32313 11.0477L5.70071 11.6708C4.70315 12.6757 4.71167 14.3044 5.70924 15.3008L6.32313 15.9059C6.56186 16.1531 6.69828 16.477 6.69828 16.8187V17.6958C6.69828 19.1106 7.84932 20.2621 9.26467 20.2621H10.1429C10.4839 20.2621 10.8079 20.3976 11.0467 20.6363L11.6691 21.2593C12.1721 21.7536 12.8286 22 13.4852 22C14.1417 22 14.7982 21.7536 15.3012 21.2499L15.9151 20.6363C16.1539 20.3976 16.4779 20.2621 16.8189 20.2621H17.6971C19.1125 20.2621 20.2635 19.1106 20.2635 17.6958V16.8187C20.2635 16.477 20.3999 16.1531 20.6386 15.9144L21.244 15.3093C21.2525 15.3008 21.2611 15.2931 21.2696 15.2837C21.7471 14.7988 22.0114 14.1502 22.0028 13.4683C22.0028 12.7865 21.7385 12.1387 21.2525 11.6614Z"/>
</mask>
<path d="M21.2525 11.6614L20.6386 11.0477C20.3999 10.8091 20.2635 10.4852 20.2635 10.1451V9.26641C20.2635 7.85157 19.1125 6.7018 17.6971 6.7018H16.8189C16.4779 6.7018 16.1539 6.56457 15.9151 6.32593L15.2927 5.70459C14.2866 4.70738 12.6581 4.70738 11.6605 5.71226L11.0467 6.32593C10.8079 6.56457 10.4839 6.7018 10.1429 6.7018H9.26467C7.84932 6.7018 6.69828 7.85157 6.69828 9.26641V10.1358C6.69828 10.4852 6.56186 10.8091 6.32313 11.0477L5.70071 11.6708C4.70315 12.6757 4.71167 14.3044 5.70924 15.3008L6.32313 15.9059C6.56186 16.1531 6.69828 16.477 6.69828 16.8187V17.6958C6.69828 19.1106 7.84932 20.2621 9.26467 20.2621H10.1429C10.4839 20.2621 10.8079 20.3976 11.0467 20.6363L11.6691 21.2593C12.1721 21.7536 12.8286 22 13.4852 22C14.1417 22 14.7982 21.7536 15.3012 21.2499L15.9151 20.6363C16.1539 20.3976 16.4779 20.2621 16.8189 20.2621H17.6971C19.1125 20.2621 20.2635 19.1106 20.2635 17.6958V16.8187C20.2635 16.477 20.3999 16.1531 20.6386 15.9144L21.244 15.3093C21.2525 15.3008 21.2611 15.2931 21.2696 15.2837C21.7471 14.7988 22.0114 14.1502 22.0028 13.4683C22.0028 12.7865 21.7385 12.1387 21.2525 11.6614Z" fill="#FFCBB9" fill-opacity="0.35"/>
<path d="M20.6386 11.0477L21.3456 10.3405H21.3456L20.6386 11.0477ZM15.9151 6.32593L16.6221 5.61869L16.6216 5.61821L15.9151 6.32593ZM15.2927 5.70459L15.9992 4.99687L15.9967 4.99435L15.2927 5.70459ZM11.6605 5.71226L12.3675 6.4195L12.3702 6.41678L11.6605 5.71226ZM11.0467 6.32593L11.7536 7.03316L11.0467 6.32593ZM6.32313 11.0477L5.61615 10.3405L5.61566 10.341L6.32313 11.0477ZM5.70071 11.6708L4.99325 10.964L4.99103 10.9663L5.70071 11.6708ZM5.70924 15.3008L5.00255 16.0083L5.00722 16.0129L5.70924 15.3008ZM6.32313 15.9059L7.0424 15.2112C7.03672 15.2053 7.03097 15.1995 7.02514 15.1938L6.32313 15.9059ZM11.0467 20.6363L11.7541 19.9295L11.7536 19.929L11.0467 20.6363ZM11.6691 21.2593L10.9616 21.9661L10.9682 21.9725L11.6691 21.2593ZM15.3012 21.2499L14.5943 20.5427L14.5937 20.5433L15.3012 21.2499ZM15.9151 20.6363L16.6221 21.3435L15.9151 20.6363ZM20.6386 15.9144L21.3456 16.6217L21.3456 16.6217L20.6386 15.9144ZM21.244 15.3093L20.537 14.6021L20.537 14.6021L21.244 15.3093ZM21.2696 15.2837L20.557 14.5822C20.5477 14.5916 20.5387 14.6012 20.5298 14.6109L21.2696 15.2837ZM22.0028 13.4683H21.0028L21.0029 13.4808L22.0028 13.4683ZM21.9595 10.9542L21.3456 10.3405L19.9317 11.755L20.5456 12.3686L21.9595 10.9542ZM21.3456 10.3405C21.2921 10.287 21.2635 10.2165 21.2635 10.1451H19.2635C19.2635 10.7539 19.5078 11.3312 19.9317 11.755L21.3456 10.3405ZM21.2635 10.1451V9.26641H19.2635V10.1451H21.2635ZM21.2635 9.26641C21.2635 7.29851 19.664 5.7018 17.6971 5.7018V7.7018C18.5609 7.7018 19.2635 8.40463 19.2635 9.26641H21.2635ZM17.6971 5.7018H16.8189V7.7018H17.6971V5.7018ZM16.8189 5.7018C16.7477 5.7018 16.6766 5.6732 16.6221 5.61869L15.2081 7.03316C15.6311 7.45595 16.208 7.7018 16.8189 7.7018V5.7018ZM16.6216 5.61821L15.9992 4.99687L14.5862 6.41231L15.2086 7.03365L16.6216 5.61821ZM15.9967 4.99435C14.602 3.61201 12.3407 3.60768 10.9509 5.00774L12.3702 6.41678C12.9755 5.80709 13.9712 5.80276 14.5887 6.41483L15.9967 4.99435ZM10.9536 5.00503L10.3397 5.61869L11.7536 7.03316L12.3675 6.4195L10.9536 5.00503ZM10.3397 5.61869C10.2851 5.6732 10.2141 5.7018 10.1429 5.7018V7.7018C10.7537 7.7018 11.3307 7.45595 11.7536 7.03316L10.3397 5.61869ZM10.1429 5.7018H9.26467V7.7018H10.1429V5.7018ZM9.26467 5.7018C7.29781 5.7018 5.69828 7.29851 5.69828 9.26641H7.69828C7.69828 8.40462 8.40083 7.7018 9.26467 7.7018V5.7018ZM5.69828 9.26641V10.1358H7.69828V9.26641H5.69828ZM5.69828 10.1358C5.69828 10.2204 5.66694 10.2897 5.61615 10.3405L7.03011 11.755C7.45678 11.3285 7.69828 10.75 7.69828 10.1358H5.69828ZM5.61566 10.341L4.99325 10.964L6.40818 12.3775L7.03059 11.7545L5.61566 10.341ZM4.99103 10.9663C3.60373 12.3637 3.61656 14.624 5.00256 16.0083L6.41592 14.5932C5.80679 13.9849 5.80256 12.9876 6.4104 12.3753L4.99103 10.9663ZM5.00722 16.0129L5.62111 16.6181L7.02514 15.1938L6.41126 14.5886L5.00722 16.0129ZM5.60385 16.6006C5.67079 16.67 5.69828 16.7479 5.69828 16.8187H7.69828C7.69828 16.2061 7.45293 15.6362 7.0424 15.2112L5.60385 16.6006ZM5.69828 16.8187V17.6958H7.69828V16.8187H5.69828ZM5.69828 17.6958C5.69828 19.6628 7.29694 21.2621 9.26467 21.2621V19.2621C8.4017 19.2621 7.69828 18.5584 7.69828 17.6958H5.69828ZM9.26467 21.2621H10.1429V19.2621H9.26467V21.2621ZM10.1429 21.2621C10.2175 21.2621 10.2876 21.2914 10.3397 21.3435L11.7536 19.929C11.3283 19.5038 10.7503 19.2621 10.1429 19.2621V21.2621ZM10.3392 21.343L10.9616 21.966L12.3765 20.5525L11.7541 19.9295L10.3392 21.343ZM10.9682 21.9725C11.6669 22.6592 12.5789 23 13.4852 23V21C13.0784 21 12.6773 20.8481 12.37 20.546L10.9682 21.9725ZM13.4852 23C14.3925 23 15.3081 22.6582 16.0088 21.9566L14.5937 20.5433C14.2882 20.8491 13.8908 21 13.4852 21V23ZM16.0082 21.9572L16.6221 21.3435L15.2081 19.929L14.5943 20.5427L16.0082 21.9572ZM16.6221 21.3435C16.6742 21.2914 16.7443 21.2621 16.8189 21.2621V19.2621C16.2114 19.2621 15.6335 19.5038 15.2081 19.929L16.6221 21.3435ZM16.8189 21.2621H17.6971V19.2621H16.8189V21.2621ZM17.6971 21.2621C19.6648 21.2621 21.2635 19.6628 21.2635 17.6958H19.2635C19.2635 18.5584 18.5601 19.2621 17.6971 19.2621V21.2621ZM21.2635 17.6958V16.8187H19.2635V17.6958H21.2635ZM21.2635 16.8187C21.2635 16.745 21.2926 16.6747 21.3456 16.6217L19.9317 15.2072C19.5072 15.6315 19.2635 16.209 19.2635 16.8187H21.2635ZM21.3456 16.6217L21.951 16.0165L20.537 14.6021L19.9317 15.2072L21.3456 16.6217ZM21.951 16.0165C21.9475 16.02 21.9452 16.0223 21.946 16.0214C21.9468 16.0207 21.9468 16.0207 21.9487 16.0189C21.95 16.0176 21.9522 16.0154 21.9547 16.013C21.9645 16.0035 21.9853 15.9831 22.0094 15.9565L20.5298 14.6109C20.5454 14.5938 20.5576 14.5819 20.5589 14.5807C20.5592 14.5803 20.5593 14.5802 20.5585 14.581C20.5583 14.5812 20.5562 14.5833 20.5548 14.5846C20.5514 14.5879 20.5448 14.5943 20.537 14.6021L21.951 16.0165ZM21.9822 15.9853C22.6447 15.3124 23.0147 14.4075 23.0028 13.4558L21.0029 13.4808C21.0081 13.8928 20.8494 14.2851 20.557 14.5822L21.9822 15.9853ZM23.0028 13.4683C23.0028 12.5258 22.6361 11.6186 21.9532 10.9479L20.5518 12.3749C20.841 12.6588 21.0028 13.0472 21.0028 13.4683H23.0028Z" fill="url(#paint1_linear)" mask="url(#path-3-outside-1)"/>
</g>
<g filter="url(#filter2_bd)">
<mask id="path-5-inside-2" fill="white">
<path fill-rule="evenodd" clip-rule="evenodd" d="M11.8155 16.1956C11.6791 16.3405 11.4915 16.4172 11.2869 16.4172C11.0908 16.4172 10.9032 16.3405 10.7668 16.1956C10.4769 15.9058 10.4769 15.4285 10.7668 15.1387L15.1492 10.7578C15.4391 10.4689 15.9081 10.4689 16.198 10.7578C16.4879 11.0476 16.4879 11.5258 16.198 11.8156L11.8155 16.1956ZM15.6763 16.4172C15.2585 16.4172 14.926 16.0848 14.926 15.6672C14.926 15.2589 15.2585 14.9257 15.6763 14.9257C16.0855 14.9257 16.418 15.2589 16.418 15.6672C16.418 16.0848 16.0855 16.4172 15.6763 16.4172ZM12.0358 11.2871C12.0358 10.878 11.7033 10.5456 11.294 10.5456C10.8847 10.5456 10.5437 10.878 10.5437 11.2871C10.5437 11.7056 10.8847 12.0371 11.294 12.0371C11.7033 12.0371 12.0358 11.7056 12.0358 11.2871Z"/>
</mask>
<path fill-rule="evenodd" clip-rule="evenodd" d="M11.8155 16.1956C11.6791 16.3405 11.4915 16.4172 11.2869 16.4172C11.0908 16.4172 10.9032 16.3405 10.7668 16.1956C10.4769 15.9058 10.4769 15.4285 10.7668 15.1387L15.1492 10.7578C15.4391 10.4689 15.9081 10.4689 16.198 10.7578C16.4879 11.0476 16.4879 11.5258 16.198 11.8156L11.8155 16.1956ZM15.6763 16.4172C15.2585 16.4172 14.926 16.0848 14.926 15.6672C14.926 15.2589 15.2585 14.9257 15.6763 14.9257C16.0855 14.9257 16.418 15.2589 16.418 15.6672C16.418 16.0848 16.0855 16.4172 15.6763 16.4172ZM12.0358 11.2871C12.0358 10.878 11.7033 10.5456 11.294 10.5456C10.8847 10.5456 10.5437 10.878 10.5437 11.2871C10.5437 11.7056 10.8847 12.0371 11.294 12.0371C11.7033 12.0371 12.0358 11.7056 12.0358 11.2871Z" fill="url(#paint2_linear)"/>
<path d="M11.8155 16.1956L11.5326 15.9125L11.5243 15.9214L11.8155 16.1956ZM10.7668 16.1956L11.0581 15.9213L11.0496 15.9127L10.7668 16.1956ZM10.7668 15.1387L10.484 14.8558H10.484L10.7668 15.1387ZM15.1492 10.7578L14.8669 10.4745L14.8665 10.4749L15.1492 10.7578ZM16.198 10.7578L16.4808 10.4749L16.4803 10.4745L16.198 10.7578ZM16.198 11.8156L16.4807 12.0985L16.4808 12.0985L16.198 11.8156ZM11.2869 16.8172C11.594 16.8172 11.8896 16.7004 12.1067 16.4698L11.5243 15.9214C11.4686 15.9806 11.389 16.0172 11.2869 16.0172V16.8172ZM10.4755 16.4698C10.691 16.6987 10.9857 16.8172 11.2869 16.8172V16.0172C11.1959 16.0172 11.1154 15.9823 11.058 15.9214L10.4755 16.4698ZM10.484 14.8558C10.0378 15.3018 10.0378 16.0325 10.484 16.4785L11.0496 15.9127C10.916 15.7791 10.916 15.5552 11.0496 15.4216L10.484 14.8558ZM14.8665 10.4749L10.484 14.8558L11.0496 15.4216L15.432 11.0407L14.8665 10.4749ZM16.4803 10.4745C16.0344 10.03 15.3129 10.03 14.8669 10.4745L15.4316 11.0411C15.5654 10.9078 15.7818 10.9078 15.9156 11.0411L16.4803 10.4745ZM16.4808 12.0985C16.9269 11.6524 16.9269 10.921 16.4808 10.4749L15.9152 11.0407C16.0488 11.1743 16.0488 11.3991 15.9152 11.5327L16.4808 12.0985ZM12.0983 16.4785L16.4807 12.0985L15.9152 11.5326L11.5327 15.9127L12.0983 16.4785ZM14.526 15.6672C14.526 16.3059 15.0377 16.8172 15.6763 16.8172V16.0172C15.4793 16.0172 15.326 15.8638 15.326 15.6672H14.526ZM15.6763 14.5257C15.0404 14.5257 14.526 15.0352 14.526 15.6672H15.326C15.326 15.4827 15.4766 15.3257 15.6763 15.3257V14.5257ZM16.818 15.6672C16.818 15.0382 16.3066 14.5257 15.6763 14.5257V15.3257C15.8644 15.3257 16.018 15.4797 16.018 15.6672H16.818ZM15.6763 16.8172C16.3093 16.8172 16.818 16.3029 16.818 15.6672H16.018C16.018 15.8668 15.8618 16.0172 15.6763 16.0172V16.8172ZM11.294 10.9456C11.4825 10.9456 11.6358 11.099 11.6358 11.2871H12.4358C12.4358 10.6569 11.924 10.1456 11.294 10.1456V10.9456ZM10.9437 11.2871C10.9437 11.1049 11.0996 10.9456 11.294 10.9456V10.1456C10.6699 10.1456 10.1437 10.651 10.1437 11.2871H10.9437ZM11.294 11.6371C11.1023 11.6371 10.9437 11.4813 10.9437 11.2871H10.1437C10.1437 11.9299 10.6672 12.4371 11.294 12.4371V11.6371ZM11.6358 11.2871C11.6358 11.4872 11.4798 11.6371 11.294 11.6371V12.4371C11.9267 12.4371 12.4358 11.9239 12.4358 11.2871H11.6358Z" fill="url(#paint3_linear)" mask="url(#path-5-inside-2)"/>
</g>
<defs>
<filter id="filter0_f" x="0.880127" y="0.879395" width="19.2861" height="19.2835" filterUnits="userSpaceOnUse" color-interpolation-filters="sRGB">
<feFlood flood-opacity="0" result="BackgroundImageFix"/>
<feBlend mode="normal" in="SourceGraphic" in2="BackgroundImageFix" result="shape"/>
<feGaussianBlur stdDeviation="2" result="effect1_foregroundBlur"/>
</filter>
<filter id="filter1_b" x="-4.04321" y="-4.04236" width="35.0463" height="35.0423" filterUnits="userSpaceOnUse" color-interpolation-filters="sRGB">
<feFlood flood-opacity="0" result="BackgroundImageFix"/>
<feGaussianBlur in="BackgroundImage" stdDeviation="4"/>
<feComposite in2="SourceAlpha" operator="in" result="effect1_backgroundBlur"/>
<feBlend mode="normal" in="SourceGraphic" in2="effect1_backgroundBlur" result="shape"/>
</filter>
<filter id="filter2_bd" x="-4.4563" y="-4.45886" width="35.8743" height="35.8761" filterUnits="userSpaceOnUse" color-interpolation-filters="sRGB">
<feFlood flood-opacity="0" result="BackgroundImageFix"/>
<feGaussianBlur in="BackgroundImage" stdDeviation="7.5"/>
<feComposite in2="SourceAlpha" operator="in" result="effect1_backgroundBlur"/>
<feColorMatrix in="SourceAlpha" type="matrix" values="0 0 0 0 0 0 0 0 0 0 0 0 0 0 0 0 0 0 127 0" result="hardAlpha"/>
<feOffset dx="1" dy="1"/>
<feGaussianBlur stdDeviation="1"/>
<feColorMatrix type="matrix" values="0 0 0 0 1 0 0 0 0 0.580392 0 0 0 0 0.247059 0 0 0 0.5 0"/>
<feBlend mode="normal" in2="effect1_backgroundBlur" result="effect2_dropShadow"/>
<feBlend mode="normal" in="SourceGraphic" in2="effect2_dropShadow" result="shape"/>
</filter>
<linearGradient id="paint0_linear" x1="10.5231" y1="2" x2="10.5231" y2="19.0423" gradientUnits="userSpaceOnUse">
<stop stop-color="#FFB37F"/>
<stop offset="1" stop-color="#FF7B0D"/>
</linearGradient>
<linearGradient id="paint1_linear" x1="4.90706" y1="4.84175" x2="23.37" y2="25.6307" gradientUnits="userSpaceOnUse">
<stop stop-color="white" stop-opacity="0.4"/>
<stop offset="1" stop-color="white" stop-opacity="0"/>
</linearGradient>
<linearGradient id="paint2_linear" x1="16.0016" y1="11.6022" x2="9.45809" y2="11.8155" gradientUnits="userSpaceOnUse">
<stop stop-color="white"/>
<stop offset="1" stop-color="white" stop-opacity="0.2"/>
</linearGradient>
<linearGradient id="paint3_linear" x1="7.45478" y1="9.27271" x2="20.6585" y2="21.9768" gradientUnits="userSpaceOnUse">
<stop stop-color="white" stop-opacity="0.25"/>
<stop offset="1" stop-color="white" stop-opacity="0"/>
</linearGradient>
</defs>
</svg>
