<svg width="24" height="24" viewBox="0 0 24 24" fill="none" xmlns="http://www.w3.org/2000/svg">
<path d="M10.315 3.70605C10.2627 3.70958 10.2121 3.72596 10.1676 3.75375C10.1232 3.78154 10.0862 3.81987 10.0602 3.86534L3.3173 15.5415C3.29617 15.5777 3.28242 15.6178 3.27683 15.6594C3.27124 15.701 3.27392 15.7433 3.28473 15.7839C3.29553 15.8244 3.31425 15.8625 3.33979 15.8958C3.36534 15.9291 3.39722 15.957 3.43359 15.9779L13.0899 21.5532C13.1262 21.574 13.1662 21.5875 13.2077 21.5928C13.2492 21.5981 13.2914 21.5952 13.3317 21.5843C13.3721 21.5734 13.41 21.5546 13.4431 21.529C13.4762 21.5034 13.5039 21.4716 13.5248 21.4353L20.2676 9.75916C20.2942 9.71347 20.309 9.66188 20.3106 9.60904C20.3123 9.55621 20.3008 9.50379 20.2772 9.4565L17.3064 3.45118C17.2783 3.39512 17.2343 3.34859 17.1799 3.31742C17.1255 3.28625 17.0631 3.27183 17.0005 3.27596L10.315 3.70605ZM10.2322 2.4349L16.9193 2.00321C17.233 1.98326 17.5455 2.05656 17.8177 2.21387C18.0898 2.37119 18.3093 2.60549 18.4485 2.88729L21.4193 8.89261C21.5358 9.12779 21.5925 9.38813 21.5841 9.65047C21.5758 9.91281 21.5027 10.169 21.3715 10.3963L14.6287 22.0725C14.4174 22.4383 14.0695 22.7053 13.6614 22.8146C13.2534 22.9239 12.8186 22.8667 12.4527 22.6555L2.79642 17.0802C2.43057 16.869 2.16361 16.5211 2.05428 16.113C1.94494 15.705 2.00218 15.2702 2.21341 14.9043L8.95466 3.22817C9.08582 3.00097 9.27106 2.80968 9.49392 2.67129C9.71679 2.5329 9.97039 2.4517 10.2322 2.4349Z" fill="#333333" stroke="#333333" stroke-width="0.5"/>
<path d="M13.0406 10.4871C13.2582 10.6181 13.4997 10.7045 13.751 10.7411C14.0023 10.7777 14.2584 10.7639 14.5043 10.7004C14.7502 10.6369 14.981 10.5251 15.1832 10.3714C15.3854 10.2178 15.5549 10.0254 15.6819 9.80544C15.8089 9.58552 15.8908 9.3425 15.9228 9.09057C15.9548 8.83864 15.9364 8.58285 15.8684 8.33815C15.8005 8.09345 15.6845 7.86474 15.5271 7.66539C15.3698 7.46603 15.1743 7.30001 14.9521 7.17705C14.5139 6.9345 13.9979 6.87368 13.5152 7.00769C13.0325 7.1417 12.6218 7.45983 12.3713 7.89362C12.1207 8.32741 12.0505 8.8422 12.1757 9.32723C12.3009 9.81226 12.6115 10.2288 13.0406 10.4871ZM12.4035 11.591C12.0382 11.3834 11.7177 11.1055 11.4602 10.7735C11.2028 10.4414 11.0136 10.0617 10.9035 9.65625C10.7935 9.25078 10.7647 8.82754 10.8188 8.41089C10.873 7.99425 11.009 7.59243 11.2191 7.22857C11.4292 6.86471 11.7091 6.546 12.0429 6.29079C12.3766 6.03558 12.7576 5.8489 13.1638 5.74151C13.57 5.63412 13.9934 5.60813 14.4097 5.66505C14.8259 5.72197 15.2269 5.86066 15.5893 6.07315C16.3151 6.49862 16.8431 7.19389 17.0581 8.00722C17.2731 8.82055 17.1577 9.68593 16.7371 10.4145C16.3164 11.1431 15.6247 11.6757 14.8128 11.8961C14.0009 12.1165 13.1348 12.0068 12.4035 11.591Z" fill="#333333" stroke="#333333" stroke-width="0.5"/>
</svg>
