<svg width="24" height="24" viewBox="0 0 24 24" fill="none" xmlns="http://www.w3.org/2000/svg">
<path d="M12 22C6.47727 22 2 17.5227 2 12C2 6.47727 6.47727 2 12 2C17.5227 2 22 6.47727 22 12C22 17.5227 17.5227 22 12 22ZM12 20.6673C16.7854 20.6673 20.6673 16.7882 20.6673 12C20.6673 7.21184 16.7854 3.33273 12 3.33273C7.21455 3.33273 3.33273 7.21455 3.33273 12C3.33273 16.7854 7.21455 20.6673 12 20.6673Z" fill="#333333" stroke="#333333" stroke-width="0.5"/>
<path d="M12.259 7.11182C13.1699 7.11182 13.9081 7.35273 14.4772 7.86637C15.0472 8.36363 15.3299 9.04727 15.3299 9.9C15.3299 10.5964 15.1454 11.1782 14.7899 11.6336C14.6626 11.79 14.2626 12.1609 13.5963 12.7427C13.3254 12.9709 13.1272 13.2273 12.9981 13.4818C12.8417 13.7654 12.7708 14.08 12.7708 14.4218V14.6627H11.2481V14.4218C11.2481 13.8946 11.3326 13.44 11.5308 13.0718C11.7163 12.6746 12.2563 12.09 13.1381 11.3082L13.379 11.0382C13.6363 10.71 13.7763 10.3709 13.7763 10C13.7763 9.50182 13.6335 9.11816 13.3636 8.83455C13.0799 8.55092 12.6672 8.40818 12.1545 8.40818C11.5135 8.40818 11.0454 8.60727 10.7608 9.02C10.5045 9.36182 10.3772 9.84637 10.3772 10.4709H8.88354C8.88354 9.43273 9.18355 8.62273 9.77899 8.02455C10.3817 7.41092 11.2072 7.11182 12.259 7.11182ZM12.0045 15.4309C12.3035 15.4309 12.5581 15.5154 12.759 15.7146C12.9572 15.9 13.0581 16.1409 13.0581 16.44C13.0581 16.7391 12.9445 16.98 12.7454 17.1782C12.5447 17.3643 12.28 17.4659 12.0063 17.4618C11.7235 17.4618 11.4663 17.3618 11.2681 17.1627C11.1713 17.0686 11.0948 16.9557 11.0432 16.831C10.9916 16.7062 10.966 16.5722 10.9681 16.4373C10.9681 16.1382 11.069 15.8973 11.2681 15.7118C11.4617 15.5154 11.719 15.43 12.0045 15.43V15.4309Z" fill="#333333" stroke="#333333" stroke-width="0.5"/>
</svg>
