<svg width="50" height="50" viewBox="0 0 50 50" fill="none" xmlns="http://www.w3.org/2000/svg">
<circle cx="25" cy="25" r="25" fill="#F5F5F5"/>
<path d="M31.5 14.9995L30.7595 13.7672C29.059 10.9375 25.4045 9.99246 22.5454 11.6432V11.6432C19.6505 13.3145 18.6586 17.0162 20.33 19.9111L22.3037 23.3297" stroke="#CCCCCC" stroke-width="2.5" stroke-linejoin="round"/>
<path fill-rule="evenodd" clip-rule="evenodd" d="M17 19C14.7909 19 13 20.7909 13 23V35C13 37.2091 14.7909 39 17 39H33C35.2091 39 37 37.2091 37 35V23C37 20.7909 35.2091 19 33 19H17ZM25 32C26.6569 32 28 30.6569 28 29C28 27.3431 26.6569 26 25 26C23.3431 26 22 27.3431 22 29C22 30.6569 23.3431 32 25 32Z" fill="#CCCCCC"/>
</svg>
