<svg width="24" height="24" viewBox="0 0 24 24" fill="none" xmlns="http://www.w3.org/2000/svg">
<path fill-rule="evenodd" clip-rule="evenodd" d="M5.0717 6.04997C3.40251 7.16276 2.3999 9.03615 2.3999 11.0423V16.2312C2.3999 19.5449 5.08619 22.2312 8.3999 22.2312H15.5999C18.9136 22.2312 21.5999 19.5449 21.5999 16.2312V11.0423C21.5999 9.03615 20.5973 7.16276 18.9281 6.04997L15.3281 3.64997C13.3127 2.30637 10.6871 2.30637 8.6717 3.64997L5.0717 6.04997ZM11.9999 16.8C13.7672 16.8 15.1999 15.3673 15.1999 13.6C15.1999 11.8327 13.7672 10.4 11.9999 10.4C10.2326 10.4 8.7999 11.8327 8.7999 13.6C8.7999 15.3673 10.2326 16.8 11.9999 16.8Z" fill="white"/>
</svg>
