<svg width="24" height="24" viewBox="0 0 24 24" fill="none" xmlns="http://www.w3.org/2000/svg">
<g opacity="0.3">
<path fill-rule="evenodd" clip-rule="evenodd" d="M5.07183 6.04994C3.40263 7.16273 2.40002 9.03612 2.40002 11.0422V16.2311C2.40002 19.5448 5.08631 22.2311 8.40002 22.2311H15.6C18.9137 22.2311 21.6 19.5448 21.6 16.2311V11.0422C21.6 9.03612 20.5974 7.16273 18.9282 6.04994L15.3282 3.64994C13.3128 2.30634 10.6872 2.30634 8.67182 3.64994L5.07183 6.04994ZM12 16.8C13.7673 16.8 15.2 15.3673 15.2 13.6C15.2 11.8327 13.7673 10.4 12 10.4C10.2327 10.4 8.80002 11.8327 8.80002 13.6C8.80002 15.3673 10.2327 16.8 12 16.8Z" fill="white"/>
</g>
</svg>
