<svg width="30" height="30" viewBox="0 0 30 30" fill="none" xmlns="http://www.w3.org/2000/svg">
<path d="M8.26527 4.28571C3.36731 4.28571 2.14282 4.72688 2.14282 5.54621V23.1933C2.14282 23.8865 2.69384 24.4538 3.36731 24.4538H7.65303C10.102 24.4538 12.551 25.7143 13.1632 25.7143C14.0816 25.7143 14.3877 25.4622 14.3877 24.4538V6.80671C14.3877 5.92436 12.4898 4.28571 8.26527 4.28571ZM21.7347 4.28571C17.6326 4.28571 15.6122 5.92436 15.6122 6.80671V24.4538C15.6122 25.4622 15.9183 25.7143 16.8367 25.7143C17.4489 25.7143 19.7755 24.4538 22.3469 24.4538H26.6326C27.6122 24.4538 27.8571 24.1386 27.8571 23.1933V5.54621C27.8571 4.72688 26.6326 4.28571 21.7347 4.28571Z" fill="white"/>
</svg>
