<svg width="24" height="24" viewBox="0 0 24 24" fill="none" xmlns="http://www.w3.org/2000/svg">
<g opacity="0.3">
<path fill-rule="evenodd" clip-rule="evenodd" d="M5.0717 6.04991C3.40251 7.1627 2.3999 9.03609 2.3999 11.0422V16.2311C2.3999 19.5448 5.08619 22.2311 8.3999 22.2311H15.5999C18.9136 22.2311 21.5999 19.5448 21.5999 16.2311V11.0422C21.5999 9.03609 20.5973 7.1627 18.9281 6.04991L15.3281 3.64991C13.3127 2.30631 10.6871 2.30631 8.6717 3.64991L5.0717 6.04991ZM11.9999 16.8C13.7672 16.8 15.1999 15.3673 15.1999 13.6C15.1999 11.8327 13.7672 10.4 11.9999 10.4C10.2326 10.4 8.7999 11.8327 8.7999 13.6C8.7999 15.3673 10.2326 16.8 11.9999 16.8Z" fill="#333333"/>
</g>
</svg>
