<svg width="28" height="28" viewBox="0 0 28 28" fill="none" xmlns="http://www.w3.org/2000/svg">
<g opacity="0.3">
<path d="M7.71429 4C3.14286 4 2 4.41176 2 5.17647V21.6471C2 22.2941 2.51429 22.8235 3.14286 22.8235H7.14286C9.42857 22.8235 11.7143 24 12.2857 24C13.1429 24 13.4286 23.7647 13.4286 22.8235V6.35294C13.4286 5.52941 11.6571 4 7.71429 4ZM20.2857 4C16.4571 4 14.5714 5.52941 14.5714 6.35294V22.8235C14.5714 23.7647 14.8571 24 15.7143 24C16.2857 24 18.4571 22.8235 20.8571 22.8235H24.8571C25.7714 22.8235 26 22.5294 26 21.6471V5.17647C26 4.41176 24.8571 4 20.2857 4Z" fill="#333333"/>
</g>
</svg>
