<svg width="50" height="50" viewBox="0 0 50 50" fill="none" xmlns="http://www.w3.org/2000/svg">
<circle cx="25" cy="25" r="25" fill="#F5F5F5"/>
<path d="M19.3759 15.0747L21.1211 12.7551C21.2006 12.5992 21.3632 12.5 21.5403 12.5H28.4597C28.6368 12.5 28.7994 12.5992 28.8789 12.7551L30.6241 15.0747H35.7803C36.0404 15.0747 36.25 15.2802 36.25 15.5354V18.292C36.25 18.5471 36.0404 18.7527 35.7803 18.7527H14.2197C13.9596 18.7527 13.75 18.5471 13.75 18.292V15.5354C13.75 15.2802 13.9596 15.0747 14.2197 15.0747H19.3759ZM16.095 20.5881H33.905C34.1651 20.5881 34.3747 20.7936 34.3747 21.0487V35.661C34.3747 36.678 33.5364 37.5 32.4994 37.5H17.5042C16.4672 37.5 15.6289 36.678 15.6289 35.661V21.0487C15.6253 20.7936 15.8349 20.5881 16.095 20.5881ZM21.2476 25.9195V32.1686C21.2476 32.6753 21.6667 33.0863 22.1834 33.0863C22.7001 33.0863 23.1193 32.6753 23.1193 32.1686V25.9195C23.1193 25.4128 22.7001 25.0018 22.1834 25.0018C21.6703 25.0018 21.2476 25.4128 21.2476 25.9195ZM26.8735 25.9195V32.1686C26.8735 32.6753 27.2926 33.0863 27.8093 33.0863C28.326 33.0863 28.7452 32.6753 28.7452 32.1686V25.9195C28.7452 25.4128 28.326 25.0018 27.8093 25.0018C27.2926 25.0018 26.8735 25.4128 26.8735 25.9195Z" fill="#666666"/>
</svg>
