<svg width="30" height="30" viewBox="0 0 30 30" fill="none" xmlns="http://www.w3.org/2000/svg">
<g opacity="0.3">
<path d="M12.9048 16.2516C8.54574 16.2516 5 19.8276 5 24.2268V24.7008C5 27 8.48916 27 12.9048 27H17.5952C21.8376 27 25.5 27 25.5 24.7008V24.2268C25.5 19.83 21.9543 16.2516 17.5952 16.2516H12.9037H12.9048ZM15.0148 15.5C18.4675 15.5 21.2753 12.6656 21.2753 9.1796C21.2753 5.6936 18.4675 2.858 15.016 2.858C11.5634 2.858 8.75438 5.6936 8.75438 9.1796C8.75438 12.6644 11.5634 15.5 15.016 15.5H15.0148Z" fill="white"/>
</g>
</svg>
