<svg width="24" height="24" viewBox="0 0 24 24" fill="none" xmlns="http://www.w3.org/2000/svg">
<g opacity="0.3">
<path d="M10.3239 13.0013C6.83659 13.0013 4 15.8621 4 19.3814V19.7606C4 21.6 6.79133 21.6 10.3239 21.6H14.0761C17.47 21.6 20.4 21.6 20.4 19.7606V19.3814C20.4 15.864 17.5634 13.0013 14.0761 13.0013H10.3229H10.3239ZM12.0119 12.4C14.774 12.4 17.0202 10.1325 17.0202 7.34368C17.0202 4.55488 14.774 2.2864 12.0128 2.2864C9.25071 2.2864 7.00351 4.55488 7.00351 7.34368C7.00351 10.1315 9.25071 12.4 12.0128 12.4H12.0119Z" fill="white"/>
</g>
</svg>
