<svg width="28" height="28" viewBox="0 0 28 28" fill="none" xmlns="http://www.w3.org/2000/svg">
<g opacity="0.3">
<path d="M12.0445 15.1682C7.97602 15.1682 4.66666 18.5058 4.66666 22.6117V23.0541C4.66666 25.2 7.92321 25.2 12.0445 25.2H16.4221C20.3817 25.2 23.8 25.2 23.8 23.0541V22.6117C23.8 18.508 20.4906 15.1682 16.4221 15.1682H12.0434H12.0445ZM14.0138 14.4667C17.2363 14.4667 19.8569 11.8212 19.8569 8.56764C19.8569 5.31404 17.2363 2.66748 14.0149 2.66748C10.7925 2.66748 8.17075 5.31404 8.17075 8.56764C8.17075 11.8201 10.7925 14.4667 14.0149 14.4667H14.0138Z" fill="#333333"/>
</g>
</svg>
