<svg width="50" height="50" viewBox="0 0 50 50" fill="none" xmlns="http://www.w3.org/2000/svg">
<path d="M25 0.00199988C11.193 0.00199988 0 11.195 0 25.002C0 35.593 6.589 44.639 15.889 48.282C15.67 46.304 15.473 43.27 15.976 41.11C16.43 39.159 18.908 28.683 18.908 28.683C18.908 28.683 18.16 27.186 18.16 24.972C18.16 21.496 20.175 18.901 22.684 18.901C24.817 18.901 25.847 20.502 25.847 22.422C25.847 24.567 24.482 27.774 23.776 30.745C23.187 33.234 25.024 35.263 27.478 35.263C31.922 35.263 35.337 30.577 35.337 23.814C35.337 17.828 31.036 13.643 24.894 13.643C17.781 13.643 13.606 18.979 13.606 24.492C13.606 26.641 14.434 28.945 15.466 30.197C15.67 30.445 15.7 30.662 15.639 30.914C15.449 31.704 15.028 33.402 14.945 33.75C14.836 34.207 14.583 34.304 14.109 34.084C10.986 32.63 9.034 28.065 9.034 24.399C9.034 16.513 14.764 9.27 25.552 9.27C34.224 9.27 40.964 15.45 40.964 23.709C40.964 32.325 35.532 39.259 27.992 39.259C25.459 39.259 23.077 37.943 22.262 36.388C22.262 36.388 21.008 41.162 20.705 42.331C20.14 44.502 18.617 47.224 17.597 48.885C19.936 49.609 22.422 50 25 50C38.807 50 50 38.807 50 25C50 11.193 38.807 0 25 0V0.00199988Z" fill="#D81E06"/>
</svg>
