<svg width="40" height="40" viewBox="0 0 40 40" fill="none" xmlns="http://www.w3.org/2000/svg">
<circle opacity="0.5" cx="20" cy="20" r="20" fill="#F5F5F5"/>
<path d="M15.5871 26.3635C15.1994 26.3635 14.8133 26.2582 14.4848 26.0519C13.954 25.7189 13.6364 25.1682 13.6364 24.5791V15.4207C13.6364 14.4374 14.5113 13.6362 15.5886 13.6362H24.4113C25.4871 13.6362 26.3636 14.436 26.3636 15.4207V24.5791C26.3636 25.1682 26.046 25.7189 25.5151 26.0504C24.9843 26.3834 24.307 26.4546 23.7061 26.2411L20.2032 24.9974C20.0724 24.9505 19.9292 24.9505 19.7984 24.9974L16.2955 26.2411C16.065 26.3237 15.8253 26.3635 15.5871 26.3635Z" fill="#FFD932"/>
</svg>
