<svg width="50" height="50" viewBox="0 0 50 50" fill="none" xmlns="http://www.w3.org/2000/svg">
<circle cx="25" cy="25" r="25" fill="#F5F5F5"/>
<path d="M28.9304 21.9232C30.5944 21.9232 32.2182 21.9143 33.8416 21.9301C34.1964 21.9336 34.5655 21.9787 34.9016 22.0869C36.0284 22.4503 36.778 23.7497 36.526 24.9377C35.9274 27.7601 35.2876 30.5737 34.6938 33.3972C34.5284 34.1833 34.3113 34.9089 33.6258 35.4046C33.2487 35.6773 32.8574 35.8924 32.3689 35.8921C28.0525 35.8883 23.7358 35.8905 19.4194 35.8905C19.3585 35.8905 19.2975 35.8823 19.1915 35.8743C19.1836 35.7417 19.1687 35.6119 19.1687 35.4821C19.1731 31.3393 19.1814 27.1965 19.1794 23.0537C19.1794 22.7804 19.2471 22.6811 19.5365 22.6341C21.9356 22.2459 23.9316 20.0446 24.1176 17.6188C24.1687 16.9545 24.1732 16.2893 24.4566 15.6545C25.1935 14.0048 27.193 13.9264 28.2617 14.9217C28.7619 15.3876 29.037 15.9668 29.1554 16.6352C29.4582 18.3443 29.4195 20.0379 28.9529 21.7159C28.9399 21.7619 28.9418 21.8121 28.9304 21.9232ZM17.8979 23.8732C17.8956 23.1698 17.5205 22.7626 16.8353 22.7487C15.9307 22.7303 15.0249 22.7287 14.1204 22.7499C13.4701 22.7655 13.0857 23.1673 13.0844 23.8192C13.0781 27.4891 13.0778 31.159 13.0847 34.8289C13.086 35.5002 13.4897 35.8845 14.1597 35.8896C15.0027 35.8959 15.846 35.8928 16.6889 35.8912C17.5395 35.8896 17.8991 35.5243 17.8998 34.6594C17.901 32.8741 17.9001 31.0889 17.9001 29.3033C17.8998 27.4935 17.9033 25.6832 17.8979 23.8732ZM32.6314 19.7837C33.3147 19.5044 33.9946 19.2159 34.6842 18.954C34.828 18.8994 35.0276 18.896 35.1701 18.9502C35.8595 19.213 36.5384 19.5041 37.2211 19.7846C37.7555 20.0043 37.9711 19.8459 37.9241 19.2746C37.8641 18.5494 37.7949 17.8245 37.7616 17.098C37.7536 16.9241 37.8308 16.7111 37.9406 16.5734C38.4008 15.9954 38.8896 15.4406 39.3647 14.8747C39.6833 14.4948 39.6046 14.2311 39.1298 14.1124C38.4027 13.9305 37.6699 13.7721 36.9465 13.5766C36.7875 13.5338 36.6146 13.4071 36.5241 13.2694C36.1061 12.634 35.7176 11.9796 35.3136 11.3353C35.0635 10.9363 34.7861 10.9335 34.5408 11.3289C34.1453 11.9659 33.7489 12.6026 33.3712 13.2497C33.2547 13.4494 33.1075 13.5477 32.8898 13.5973C32.1588 13.7626 31.4301 13.9372 30.7027 14.1178C30.2336 14.2342 30.1577 14.484 30.47 14.8525C30.948 15.4162 31.4177 15.9875 31.9141 16.5343C32.0988 16.7378 32.1334 16.9393 32.108 17.1935C32.0382 17.8956 31.9865 18.5995 31.9278 19.3025C31.903 19.8608 32.1045 19.9989 32.6314 19.7837Z" fill="#FFD932"/>
</svg>
