<svg width="50" height="50" viewBox="0 0 50 50" fill="none" xmlns="http://www.w3.org/2000/svg">
<circle cx="25" cy="25" r="25" fill="#F5F5F5"/>
<path d="M38.3326 30.5893L27.7385 12.1741C27.1924 11.058 26.1003 10.5 25.0081 10.5C23.9159 10.5 22.8237 11.058 22.2776 12.1741L11.6835 30.5893C10.4821 32.7098 11.902 35.5 14.414 35.5H35.493C38.005 35.5 39.534 32.7098 38.3326 30.5893ZM25.8818 30.1429C25.4449 30.5893 24.6804 30.5893 24.1343 30.1429C23.9159 29.9196 23.8067 29.5848 23.8067 29.25C23.8067 28.9152 23.9159 28.5804 24.1343 28.3571C24.5712 27.9107 25.3357 27.9107 25.8818 28.3571C26.1003 28.5804 26.2095 28.9152 26.2095 29.25C26.2095 29.5848 26.1003 29.9196 25.8818 30.1429ZM26.2095 25.567C26.2095 26.125 25.7726 26.4598 25.1173 26.4598H24.8989C24.3528 26.4598 23.8067 26.0134 23.8067 25.567V19.7634C23.8067 19.2054 24.2436 18.8705 24.8989 18.8705H25.1173C25.6634 18.8705 26.2095 19.317 26.2095 19.7634V25.567Z" fill="#FF603E"/>
</svg>
