<svg width="50" height="50" viewBox="0 0 50 50" fill="none" xmlns="http://www.w3.org/2000/svg">
<circle cx="25" cy="25" r="25" fill="#F5F5F5"/>
<path d="M17.0714 12.5H29.9339C30.4182 12.4997 30.8974 12.5978 31.3425 12.7884C31.7876 12.9791 32.1893 13.2582 32.5232 13.6089L37.0232 18.3411C37.9715 19.3374 38.5003 20.6603 38.5 22.0357V33.9286C38.5 34.8758 38.1237 35.7842 37.454 36.454C36.7842 37.1237 35.8758 37.5 34.9286 37.5H17.0714C16.1242 37.5 15.2158 37.1237 14.546 36.454C13.8763 35.7842 13.5 34.8758 13.5 33.9286V16.0714C13.5 15.1242 13.8763 14.2158 14.546 13.546C15.2158 12.8763 16.1242 12.5 17.0714 12.5ZM18.8571 17.8571C18.6226 17.8571 18.3904 17.9033 18.1738 17.9931C17.9571 18.0828 17.7603 18.2143 17.5945 18.3802C17.4286 18.546 17.2971 18.7428 17.2074 18.9595C17.1176 19.1761 17.0714 19.4084 17.0714 19.6429C17.0714 19.8774 17.1176 20.1096 17.2074 20.3262C17.2971 20.5429 17.4286 20.7397 17.5945 20.9055C17.7603 21.0714 17.9571 21.2029 18.1738 21.2926C18.3904 21.3824 18.6226 21.4286 18.8571 21.4286H27.7857C28.2593 21.4286 28.7135 21.2404 29.0484 20.9055C29.3833 20.5707 29.5714 20.1165 29.5714 19.6429C29.5714 19.1693 29.3833 18.7151 29.0484 18.3802C28.7135 18.0453 28.2593 17.8571 27.7857 17.8571H18.8571ZM26 33.9286C26.469 33.9286 26.9335 33.8363 27.3668 33.6568C27.8002 33.4773 28.1939 33.2143 28.5256 32.8826C28.8573 32.551 29.1204 32.1573 29.2999 31.7239C29.4794 31.2906 29.5718 30.8262 29.5718 30.3571C29.5718 29.8881 29.4794 29.4237 29.2999 28.9903C29.1204 28.557 28.8573 28.1633 28.5256 27.8316C28.1939 27.5 27.8002 27.2369 27.3668 27.0575C26.9335 26.878 26.469 26.7857 26 26.7857C25.0529 26.7858 24.1445 27.1621 23.4748 27.8319C22.8051 28.5016 22.4289 29.41 22.4289 30.3571C22.4289 31.3043 22.8051 32.2126 23.4748 32.8824C24.1445 33.5522 25.0529 33.9285 26 33.9286Z" fill="#0474FA"/>
</svg>
