<svg width="24" height="24" viewBox="0 0 24 24" fill="none" xmlns="http://www.w3.org/2000/svg">
<path d="M12.7911 1.41938L20.7256 6.00032C21.2331 6.29348 21.5445 6.83366 21.5445 7.41901V16.5809C21.5445 17.1662 21.2331 17.7064 20.7256 17.9996L12.7911 22.5805C12.5421 22.7243 12.2597 22.7999 11.9722 22.7999C11.6847 22.7999 11.4023 22.7243 11.1533 22.5805L3.21882 17.9996C2.9698 17.8558 2.76301 17.649 2.61926 17.4C2.47551 17.1509 2.39985 16.8684 2.3999 16.5809V7.41901C2.3999 6.83366 2.71132 6.29348 3.21882 6.00032L11.1533 1.41938C11.4023 1.27563 11.6847 1.19995 11.9722 1.19995C12.2597 1.19995 12.5421 1.27563 12.7911 1.41938ZM11.9722 3.16583L4.32128 7.58337V16.4156L11.9722 20.8331L19.6222 16.4156V7.58337L11.9722 3.16583Z" fill="#333333"/>
<path d="M11.972 8.3158C12.9491 8.3158 13.8862 8.70395 14.5771 9.39486C15.268 10.0858 15.6562 11.0229 15.6562 12C15.6562 12.9771 15.268 13.9141 14.5771 14.6051C13.8862 15.296 12.9491 15.6841 11.972 15.6841C10.9949 15.6841 10.0578 15.296 9.36691 14.6051C8.67599 13.9141 8.28784 12.9771 8.28784 12C8.28784 11.0229 8.67599 10.0858 9.36691 9.39486C10.0578 8.70395 10.9949 8.3158 11.972 8.3158ZM11.972 10.2381C11.5047 10.2381 11.0566 10.4238 10.7262 10.7542C10.3958 11.0846 10.2102 11.5327 10.2102 12C10.2102 12.4672 10.3958 12.9154 10.7262 13.2458C11.0566 13.5762 11.5047 13.7618 11.972 13.7618C12.4393 13.7618 12.8874 13.5762 13.2178 13.2458C13.5482 12.9154 13.7338 12.4672 13.7338 12C13.7338 11.5327 13.5482 11.0846 13.2178 10.7542C12.8874 10.4238 12.4393 10.2381 11.972 10.2381Z" fill="#333333"/>
</svg>
