<svg width="50" height="50" viewBox="0 0 50 50" fill="none" xmlns="http://www.w3.org/2000/svg">
<circle cx="25" cy="25" r="25" fill="#90DD65"/>
<path d="M25.0523 10C16.0047 10 8.79387 16.6667 8.79387 24.8979C8.79387 27.483 9.54215 29.9319 10.7667 32.1088C10.9707 32.4489 11.0387 32.8571 10.9027 33.2653L8.79387 39.0476C8.58978 39.5918 9.13399 40.068 9.67824 39.932L15.5286 37.6871C15.8687 37.551 16.2768 37.619 16.685 37.8231C19.134 39.1837 22.0592 40 25.1884 40C34.1 39.932 41.3789 33.2653 41.3789 25.0341C41.3108 16.6667 34.0319 10.0001 25.0523 10.0001V10ZM18.5217 27.4149C18.3176 27.755 18.1136 28.0952 17.8415 28.2992C17.5694 28.5033 17.2292 28.7074 16.8211 28.8435C16.4809 28.9795 16.0728 28.9795 15.6646 28.9795C15.1204 28.9795 14.6442 28.9115 14.168 28.7074C13.6918 28.5033 13.2156 28.2312 12.8755 27.8231L12.7394 27.687C12.6714 27.619 12.7394 27.4829 12.8755 27.3469L13.9639 26.3265C14.1 26.1904 14.236 26.1904 14.3041 26.2584C14.3721 26.3265 14.4401 26.4625 14.4401 26.4625C14.5762 26.6666 14.7802 26.8027 14.9843 26.9387C15.3244 27.1428 15.6646 27.1428 16.0728 27.0748C16.2088 27.0748 16.2768 27.0067 16.4129 26.9387L16.617 26.7346C16.685 26.6666 16.685 26.5305 16.685 26.4625C16.685 26.1904 16.617 26.1224 16.5489 26.0544C16.4129 25.9183 16.2088 25.7823 15.9367 25.7143C15.6645 25.6462 15.3924 25.5102 15.0523 25.4421C14.7122 25.3061 14.372 25.17 14.0999 25.034C13.7598 24.8299 13.5557 24.5578 13.3516 24.2857C13.1476 23.9456 13.0115 23.5374 13.0115 22.9932C13.0115 22.517 13.0795 22.1088 13.2836 21.7687C13.4877 21.4286 13.6918 21.1564 14.0319 20.9524C14.304 20.7483 14.6442 20.5442 15.0523 20.4762C15.8686 20.2721 16.685 20.2721 17.5013 20.5442C17.9095 20.6802 18.3176 20.9524 18.5217 21.0884L18.7258 21.2245C18.8618 21.2925 18.7938 21.4966 18.6577 21.6327L17.6373 22.653C17.5013 22.7891 17.2972 22.7891 17.1611 22.653C17.0251 22.585 16.9571 22.4489 16.889 22.4489C16.5489 22.2449 16.0727 22.1769 15.6646 22.2449C15.5285 22.2449 15.4605 22.3129 15.3924 22.3809L15.1884 22.585C15.1203 22.6531 15.1203 22.7211 15.1203 22.8571C15.1203 23.0612 15.1884 23.1292 15.2564 23.1973C15.3925 23.3333 15.5965 23.4013 15.8687 23.5374C16.1408 23.6054 16.4129 23.7415 16.753 23.8095C17.0932 23.9456 17.4333 24.0816 17.7055 24.2176C18.0455 24.4217 18.2496 24.6938 18.4537 24.9659C18.6578 25.3061 18.7939 25.7143 18.7939 26.2584C18.7939 26.6666 18.7258 27.0748 18.5217 27.4149V27.4149ZM29.8142 28.3673C29.8142 28.7754 29.4741 29.0476 29.066 29.0476H28.3857C27.9775 29.0476 27.7734 28.7754 27.7734 28.3673V24.3537C27.7734 23.9455 27.2292 23.8775 27.0931 24.2176L25.9367 27.2789C25.8686 27.551 25.5966 27.687 25.3244 27.687H24.8482C24.5761 27.687 24.304 27.483 24.236 27.2789L23.0115 24.2176C22.8754 23.8775 22.3312 23.9455 22.3312 24.3537V28.3673C22.3312 28.7755 21.9911 29.0476 21.5829 29.0476H20.9026C20.4945 29.0476 20.2904 28.7755 20.2904 28.3673V20.8843C20.2904 20.4761 20.5625 20.204 20.9026 20.204H22.6713C22.9434 20.204 23.2155 20.4081 23.2836 20.6122L24.6441 24.1496C24.7802 24.4217 25.1883 24.4217 25.2564 24.1496L26.6169 20.6122C26.685 20.3401 26.9571 20.204 27.2292 20.204H29.066C29.4741 20.204 29.8142 20.4761 29.8142 20.8843V28.3673V28.3673ZM36.9571 27.4829C36.753 27.823 36.5489 28.1632 36.2088 28.3673C35.9367 28.5713 35.5965 28.7754 35.1884 28.9115C34.7802 29.0475 34.4401 29.0476 34.0319 29.0476C33.4877 29.0476 33.0115 28.9795 32.5353 28.7754C32.0591 28.5713 31.5829 28.2992 31.2428 27.8911L31.1068 27.755C31.0387 27.687 31.1068 27.5509 31.2428 27.4149L32.3313 26.3945C32.4673 26.2584 32.6034 26.2584 32.6714 26.3264C32.7394 26.3945 32.8075 26.5305 32.8075 26.5305C32.9435 26.7346 33.1476 26.8707 33.3517 27.0067C33.6918 27.2108 34.1 27.2108 34.4401 27.1428C34.5762 27.0748 34.7122 27.0748 34.7802 27.0067L34.9843 26.8027C34.9843 26.8027 35.0524 26.5986 35.0524 26.5305C35.0524 26.2584 34.9843 26.1904 34.9163 26.1224C34.7802 25.9863 34.5762 25.8503 34.304 25.7823C34.0319 25.7143 33.7598 25.5782 33.4196 25.5102C33.0795 25.3741 32.7394 25.2381 32.4673 25.102C32.1272 24.8979 31.855 24.6258 31.651 24.3537C31.4469 24.0136 31.3108 23.6054 31.3108 23.0612C31.3108 22.585 31.3789 22.1768 31.5829 21.8367C31.787 21.4966 31.9911 21.2244 32.3313 21.0204C32.6034 20.8163 33.0115 20.6122 33.3516 20.5442C34.1679 20.3401 34.9843 20.3401 35.8006 20.6122C36.2088 20.7483 36.6169 21.0204 36.821 21.2244L37.0251 21.4285C37.1612 21.4966 37.0931 21.7006 36.9571 21.8367L35.9367 22.8571C35.8006 22.9932 35.5966 22.9932 35.4605 22.8571C35.3244 22.7891 35.2564 22.653 35.1884 22.653C34.8483 22.4489 34.3721 22.3809 33.9639 22.4489C33.8278 22.4489 33.7598 22.517 33.6918 22.585L33.4877 22.7891C33.4197 22.8571 33.4197 22.9932 33.4197 23.0612C33.4197 23.2653 33.4877 23.3333 33.5558 23.4013C33.6918 23.5374 33.8959 23.6054 34.168 23.7414C34.4401 23.8095 34.7122 23.9455 35.0524 24.0135C35.3925 24.1496 35.7327 24.2856 36.0048 24.4217C36.3449 24.6258 36.549 24.8979 36.8211 25.17C37.0252 25.5101 37.1612 25.9183 37.1612 26.4625C37.2292 26.6666 37.1612 27.1428 36.9571 27.4829Z" fill="white"/>
</svg>
