<svg width="30" height="30" viewBox="0 0 30 30" fill="none" xmlns="http://www.w3.org/2000/svg">
<g filter="url(#filter0_b)">
<circle cx="15" cy="15" r="15" fill="black" fill-opacity="0.1"/>
</g>
<g opacity="0.3">
<path d="M16.4433 14.151C17.3393 14.151 18.2136 14.1462 19.0877 14.1547C19.2788 14.1566 19.4776 14.1809 19.6585 14.2392C20.2652 14.4348 20.6689 15.1345 20.5332 15.7742C20.2109 17.294 19.8664 18.809 19.5466 20.3293C19.4576 20.7526 19.3407 21.1433 18.9715 21.4102C18.7685 21.557 18.5578 21.6729 18.2948 21.6727C15.9706 21.6707 13.6462 21.6719 11.3219 21.6719C11.2891 21.6719 11.2563 21.6674 11.1992 21.6632C11.195 21.5917 11.1869 21.5218 11.1869 21.4519C11.1893 19.2212 11.1938 16.9905 11.1927 14.7597C11.1927 14.6126 11.2291 14.5591 11.385 14.5338C12.6768 14.3248 13.7516 13.1394 13.8518 11.8333C13.8793 11.4756 13.8817 11.1174 14.0343 10.7756C14.4311 9.88723 15.5078 9.84502 16.0832 10.381C16.3525 10.6318 16.5007 10.9437 16.5644 11.3036C16.7275 12.2239 16.7066 13.1358 16.4554 14.0394C16.4484 14.0642 16.4494 14.0912 16.4433 14.151ZM10.5027 15.201C10.5015 14.8223 10.2995 14.603 9.93049 14.5955C9.44343 14.5856 8.95568 14.5847 8.46862 14.5962C8.11845 14.6045 7.91149 14.8209 7.91081 15.1719C7.90739 17.148 7.90722 19.1241 7.91098 21.1002C7.91166 21.4617 8.12905 21.6686 8.48981 21.6714C8.94372 21.6748 9.3978 21.6731 9.8517 21.6722C10.3097 21.6714 10.5033 21.4747 10.5037 21.009C10.5044 20.0477 10.5039 19.0864 10.5039 18.1249C10.5037 17.1504 10.5056 16.1756 10.5027 15.201ZM18.4361 12.999C18.804 12.8486 19.1701 12.6932 19.5415 12.5522C19.6189 12.5228 19.7264 12.5209 19.8031 12.5502C20.1743 12.6917 20.5399 12.8484 20.9075 12.9995C21.1953 13.1177 21.3113 13.0324 21.286 12.7248C21.2537 12.3343 21.2164 11.944 21.1985 11.5528C21.1942 11.4592 21.2358 11.3445 21.2949 11.2703C21.5427 10.9591 21.8059 10.6604 22.0617 10.3557C22.2333 10.1511 22.1909 10.0091 21.9352 9.94517C21.5437 9.84724 21.1491 9.76196 20.7596 9.65669C20.674 9.63362 20.5809 9.56543 20.5322 9.49126C20.3071 9.14912 20.0979 8.79673 19.8804 8.44981C19.7457 8.23499 19.5963 8.23345 19.4642 8.44639C19.2513 8.78938 19.0378 9.1322 18.8345 9.48066C18.7717 9.58816 18.6925 9.64114 18.5752 9.6678C18.1816 9.75684 17.7893 9.85083 17.3976 9.94807C17.145 10.0108 17.1041 10.1453 17.2723 10.3437C17.5297 10.6472 17.7826 10.9548 18.0499 11.2493C18.1493 11.3588 18.168 11.4674 18.1543 11.6042C18.1167 11.9823 18.0888 12.3613 18.0572 12.7399C18.0439 13.0405 18.1524 13.1148 18.4361 12.999Z" fill="white"/>
</g>
<defs>
<filter id="filter0_b" x="-2" y="-2" width="34" height="34" filterUnits="userSpaceOnUse" color-interpolation-filters="sRGB">
<feFlood flood-opacity="0" result="BackgroundImageFix"/>
<feGaussianBlur in="BackgroundImage" stdDeviation="1"/>
<feComposite in2="SourceAlpha" operator="in" result="effect1_backgroundBlur"/>
<feBlend mode="normal" in="SourceGraphic" in2="effect1_backgroundBlur" result="shape"/>
</filter>
</defs>
</svg>
