<svg width="50" height="50" viewBox="0 0 50 50" fill="none" xmlns="http://www.w3.org/2000/svg">
<circle cx="25" cy="25" r="25" fill="#F5F5F5"/>
<path fill-rule="evenodd" clip-rule="evenodd" d="M25.3362 33.3368C25.1188 33.2592 24.8812 33.2592 24.6638 33.3368L17.8779 35.7589C17.2157 35.9953 16.5228 35.4925 16.5421 34.7897L16.7405 27.5554C16.7468 27.3261 16.6741 27.1016 16.5345 26.9196L12.1352 21.1812C11.7084 20.6245 11.9725 19.8129 12.6451 19.6139L19.56 17.5682C19.7808 17.5029 19.9723 17.3634 20.1021 17.1732L24.1742 11.2095C24.5712 10.628 25.4288 10.628 25.8258 11.2095L29.8979 17.1732C30.0277 17.3634 30.2192 17.5029 30.44 17.5682L37.3549 19.6139C38.0275 19.8129 38.2916 20.6245 37.8648 21.1812L33.4655 26.9196C33.3259 27.1016 33.2532 27.3261 33.2595 27.5554L33.4579 34.7897C33.4772 35.4925 32.7843 35.9953 32.1221 35.7589L25.3362 33.3368Z" fill="#CCCCCC"/>
</svg>
