<svg width="24" height="24" viewBox="0 0 24 24" fill="none" xmlns="http://www.w3.org/2000/svg">
<path fill-rule="evenodd" clip-rule="evenodd" d="M11.8351 18.319C11.6183 18.2419 11.3817 18.2419 11.1649 18.319L7.29089 19.6967C6.62886 19.9322 5.93686 19.4294 5.9562 18.727L6.06934 14.6168C6.07567 14.3869 6.00254 14.1618 5.86226 13.9795L3.35482 10.7208C2.92633 10.1639 3.19065 9.35044 3.86463 9.15178L7.8086 7.98928C8.02924 7.92424 8.22072 7.78513 8.35076 7.59538L10.6751 4.20367C11.0723 3.62407 11.9277 3.62407 12.3249 4.20367L14.6492 7.59538C14.7793 7.78513 14.9708 7.92424 15.1914 7.98928L19.1354 9.15178C19.8093 9.35044 20.0737 10.1639 19.6452 10.7208L17.1377 13.9795C16.9975 14.1618 16.9243 14.3869 16.9307 14.6168L17.0438 18.727C17.0631 19.4294 16.3711 19.9322 15.7091 19.6967L11.8351 18.319Z" fill="#FF603E"/>
</svg>
