<svg width="12" height="12" viewBox="0 0 12 12" fill="none" xmlns="http://www.w3.org/2000/svg">
<path fill-rule="evenodd" clip-rule="evenodd" d="M0.8 11.7062C1.10972 11.9007 1.47376 12 1.83927 12C2.06385 12 2.28991 11.9624 2.50716 11.8846L5.80991 10.712C5.93321 10.6677 6.06826 10.6677 6.19156 10.712L9.49431 11.8846C10.0609 12.0859 10.6994 12.0188 11.2 11.7048C11.7006 11.3922 12 10.873 12 10.3175V1.68247C12 0.754025 11.1736 0 10.1593 0H1.84073C0.824954 0 0 0.755367 0 1.68247V10.3175C0 10.873 0.29945 11.3922 0.8 11.7062ZM9.17681 3.44883C8.92893 3.20094 8.52703 3.20094 8.27915 3.44883L5.5 6.22797L3.97215 4.70012C3.72427 4.45224 3.32237 4.45224 3.07448 4.70012C2.8266 4.94801 2.8266 5.34991 3.07448 5.59779L4.93269 7.456C5.24601 7.76932 5.75399 7.76932 6.06731 7.456L9.17681 4.34649C9.4247 4.09861 9.4247 3.69671 9.17681 3.44883Z" fill="#C4C4C4"/>
</svg>
