<svg width="40" height="40" viewBox="0 0 40 40" fill="none" xmlns="http://www.w3.org/2000/svg">
<circle cx="20" cy="20" r="20" fill="#F5F5F5"/>
<path d="M15.5872 26.3635C15.1996 26.3635 14.8135 26.2582 14.485 26.0519C13.9541 25.7189 13.6365 25.1682 13.6365 24.5791V15.4207C13.6365 14.4374 14.5114 13.6362 15.5888 13.6362H24.4115C25.4872 13.6362 26.3637 14.436 26.3637 15.4207V24.5791C26.3637 25.1682 26.0462 25.7189 25.5153 26.0504C24.9844 26.3834 24.3071 26.4546 23.7062 26.2411L20.2033 24.9974C20.0725 24.9505 19.9293 24.9505 19.7985 24.9974L16.2956 26.2411C16.0652 26.3237 15.8254 26.3635 15.5872 26.3635Z" fill="#FFD932"/>
</svg>
