<svg width="18" height="18" viewBox="0 0 18 18" fill="none" xmlns="http://www.w3.org/2000/svg">
<circle cx="9.00008" cy="9.00002" r="8.33333" fill="#FFD932"/>
<path fill-rule="evenodd" clip-rule="evenodd" d="M9.75762 6.7273C9.75762 6.3089 9.41844 5.96973 9.00005 5.96973C8.58165 5.96973 8.24247 6.3089 8.24247 6.7273V8.24246H6.7273C6.3089 8.24246 5.96973 8.58164 5.96973 9.00003C5.96973 9.41843 6.3089 9.75761 6.7273 9.75761H8.24247V11.2728C8.24247 11.6912 8.58165 12.0303 9.00005 12.0303C9.41844 12.0303 9.75762 11.6912 9.75762 11.2728V9.75761H11.2728C11.6912 9.75761 12.0303 9.41843 12.0303 9.00003C12.0303 8.58164 11.6912 8.24246 11.2728 8.24246H9.75762V6.7273Z" fill="#333333"/>
</svg>
