<svg width="30" height="30" viewBox="0 0 30 30" fill="none" xmlns="http://www.w3.org/2000/svg">
<path fill-rule="evenodd" clip-rule="evenodd" d="M14.7101 22.869C14.4933 22.7919 14.2567 22.7919 14.0399 22.869L8.7699 24.7431C8.10787 24.9786 7.41587 24.4758 7.4352 23.7734L7.58913 18.1822C7.59546 17.9522 7.52232 17.7271 7.38204 17.5448L3.97106 13.1119C3.54257 12.555 3.80689 11.7415 4.48087 11.5429L9.84603 9.96146C10.0667 9.89643 10.2581 9.75731 10.3882 9.56756L13.5501 4.95367C13.9473 4.37407 14.8027 4.37407 15.1999 4.95367L18.3618 9.56756C18.4918 9.75731 18.6833 9.89643 18.904 9.96146L24.2691 11.5429C24.9431 11.7415 25.2074 12.555 24.7789 13.1119L21.368 17.5448C21.2277 17.7271 21.1545 17.9522 21.1609 18.1822L21.3148 23.7734C21.3341 24.4758 20.6421 24.9786 19.9801 24.7431L14.7101 22.869Z" fill="white"/>
</svg>
