<svg width="40" height="40" viewBox="0 0 40 40" fill="none" xmlns="http://www.w3.org/2000/svg">
<circle cx="20" cy="20" r="20" fill="#444444"/>
<path d="M15.587 26.3635C15.1993 26.3635 14.8132 26.2582 14.4847 26.0519C13.9538 25.7189 13.6362 25.1682 13.6362 24.5791V15.4207C13.6362 14.4374 14.5112 13.6362 15.5885 13.6362H24.4112C25.487 13.6362 26.3635 14.436 26.3635 15.4207V24.5791C26.3635 25.1682 26.0459 25.7189 25.515 26.0504C24.9841 26.3834 24.3069 26.4546 23.706 26.2411L20.203 24.9974C20.0723 24.9505 19.929 24.9505 19.7983 24.9974L16.2953 26.2411C16.0649 26.3237 15.8252 26.3635 15.587 26.3635Z" fill="white"/>
</svg>
