<svg width="24" height="24" viewBox="0 0 24 24" fill="none" xmlns="http://www.w3.org/2000/svg">
<path d="M11.925 8.56487C12.4539 8.56561 12.9662 8.74076 13.3748 9.06054C13.7834 9.38032 14.063 9.82498 14.166 10.3189C14.2691 10.8128 14.1892 11.3254 13.94 11.7695C13.6908 12.2137 13.2877 12.562 12.7992 12.7551C12.3107 12.9482 11.767 12.9742 11.2606 12.8288C10.7542 12.6833 10.3164 12.3753 10.0216 11.9572C9.72685 11.5391 9.59333 11.0367 9.64379 10.5355C9.69424 10.0342 9.92554 9.56509 10.2984 9.20789C10.5114 9.00374 10.7649 8.8418 11.0441 8.73143C11.3233 8.62107 11.6226 8.56446 11.925 8.56487ZM11.925 7.2526C11.0735 7.25383 10.2489 7.53604 9.59148 8.05117C8.9341 8.56629 8.48465 9.28245 8.31972 10.0776C8.15479 10.8728 8.28456 11.6979 8.68694 12.4122C9.08932 13.1265 9.73941 13.6859 10.5265 13.9952C11.3135 14.3044 12.1888 14.3443 13.0033 14.108C13.8178 13.8718 14.521 13.374 14.9932 12.6995C15.4654 12.025 15.6773 11.2156 15.5929 10.409C15.5085 9.60245 15.133 8.8487 14.5303 8.27617C14.1888 7.94981 13.7827 7.69127 13.3355 7.51556C12.8882 7.33984 12.4088 7.25046 11.925 7.2526Z" fill="#333333" stroke="#333333" stroke-width="0.5"/>
<path d="M18.2384 4.54943C17.4196 3.743 16.4386 3.10169 15.354 2.66371C14.2693 2.22572 13.1032 2 11.925 2C10.7468 2 9.58068 2.22572 8.49604 2.66371C7.4114 3.10169 6.43045 3.743 5.61159 4.54943C3.93642 6.19876 3 8.40321 3 10.6974C3 12.9916 3.93642 15.1961 5.61159 16.8454L11.925 23L18.2384 16.8454C19.9136 15.1961 20.85 12.9916 20.85 10.6974C20.85 8.40321 19.9136 6.19876 18.2384 4.54943ZM17.2873 15.9793L11.925 21.2284L6.56274 15.9793C5.13868 14.5813 4.3423 12.7104 4.3423 10.763C4.3423 8.81566 5.13868 6.94478 6.56274 5.54675C7.25918 4.8634 8.09267 4.32013 9.01377 3.94913C9.93487 3.57813 10.9248 3.38696 11.925 3.38696C12.9252 3.38696 13.9151 3.57813 14.8362 3.94913C15.7573 4.32013 16.5908 4.8634 17.2873 5.54675C18.7113 6.94478 19.5077 8.81566 19.5077 10.763C19.5077 12.7104 18.7113 14.5813 17.2873 15.9793Z" fill="#333333" stroke="#333333" stroke-width="0.5"/>
</svg>
