<svg width="24" height="24" viewBox="0 0 24 24" fill="none" xmlns="http://www.w3.org/2000/svg">
<path d="M5.84126 22C5.16503 21.9995 4.51664 21.7285 4.03856 21.2464C3.56048 20.7643 3.2918 20.1107 3.29156 19.429V17.7771H2.85696C2.74154 17.7936 2.6239 17.7828 2.51334 17.7455C2.40279 17.7083 2.30235 17.6456 2.21996 17.5625C2.13758 17.4793 2.07551 17.378 2.03866 17.2665C2.00182 17.1551 1.9912 17.0365 2.00766 16.9201C1.97948 16.7213 2.0308 16.5193 2.15033 16.3586C2.26987 16.1979 2.44783 16.0916 2.64509 16.0632C2.71566 16.0531 2.78729 16.0531 2.85786 16.0632H3.29156V12.6982H2.85696C2.74154 12.7147 2.6239 12.7038 2.51334 12.6666C2.40279 12.6293 2.30235 12.5666 2.21996 12.4835C2.13758 12.4004 2.07551 12.2991 2.03866 12.1876C2.00182 12.0761 1.9912 11.9575 2.00766 11.8412C1.99105 11.7248 2.00154 11.6061 2.03832 11.4945C2.0751 11.3829 2.13714 11.2815 2.21955 11.1982C2.30195 11.115 2.40245 11.0522 2.51308 11.0149C2.62372 10.9776 2.74145 10.9668 2.85696 10.9833H3.29156V7.61924H2.85696C2.74145 7.63574 2.62372 7.62491 2.51308 7.5876C2.40245 7.55029 2.30195 7.48753 2.21955 7.40429C2.13714 7.32105 2.0751 7.21962 2.03832 7.10802C2.00154 6.99643 1.99105 6.87773 2.00766 6.76134C1.9912 6.64502 2.00182 6.52643 2.03866 6.41495C2.07551 6.30347 2.13758 6.20216 2.21996 6.11903C2.30235 6.0359 2.40279 5.97323 2.51334 5.93597C2.6239 5.89871 2.74154 5.88789 2.85696 5.90435H3.29156V4.57187C3.29156 3.89009 3.56013 3.2362 4.03824 2.75393C4.51635 2.27166 5.16487 2.00048 5.84126 2H18.4485C19.125 2 19.7739 2.27084 20.2524 2.75296C20.7308 3.23508 20.9998 3.88901 21 4.57096V19.429C20.9998 20.1108 20.731 20.7646 20.2527 21.2467C19.7744 21.7288 19.1258 21.9998 18.4494 22H5.84126ZM4.99196 19.429C4.99196 19.9018 5.37225 20.286 5.84216 20.286H18.4503C18.6752 20.2848 18.8906 20.1939 19.0492 20.0331C19.2078 19.8724 19.2969 19.6549 19.2969 19.4281V4.57096C19.2966 4.34375 19.207 4.12591 19.0476 3.96525C18.8882 3.80458 18.6721 3.71421 18.4467 3.71397H5.83945C5.61388 3.71421 5.39763 3.80471 5.23821 3.96557C5.07879 4.12643 4.98925 4.3445 4.98925 4.57187V5.90435H5.42295C5.53853 5.8877 5.65636 5.89841 5.76711 5.93565C5.87787 5.97289 5.97849 6.03562 6.061 6.11888C6.14351 6.20214 6.20564 6.30363 6.24247 6.41531C6.27929 6.52698 6.2898 6.64577 6.27315 6.76225C6.2871 6.86078 6.28165 6.9611 6.25711 7.0575C6.23257 7.1539 6.18943 7.24448 6.13015 7.32407C6.07087 7.40365 5.99662 7.47069 5.91162 7.52133C5.82663 7.57198 5.73257 7.60525 5.63482 7.61924C5.56454 7.62919 5.49323 7.62919 5.42295 7.61924H4.98834V10.9842H5.42295C5.53837 10.9677 5.65601 10.9786 5.76656 11.0158C5.87712 11.0531 5.97756 11.1158 6.05995 11.1989C6.14233 11.282 6.2044 11.3833 6.24124 11.4948C6.27809 11.6063 6.2887 11.7249 6.27224 11.8412C6.28889 11.9577 6.27839 12.0765 6.24156 12.1881C6.20474 12.2998 6.14261 12.4013 6.0601 12.4846C5.97758 12.5678 5.87696 12.6306 5.76621 12.6678C5.65546 12.705 5.53762 12.7158 5.42204 12.6991H4.98834V16.0632H5.42295C5.53846 16.0467 5.65619 16.0575 5.76682 16.0948C5.87746 16.1321 5.97796 16.1949 6.06036 16.2781C6.14276 16.3613 6.20481 16.4628 6.24159 16.5744C6.27836 16.686 6.28886 16.8047 6.27224 16.9211C6.28858 17.0374 6.27784 17.156 6.24088 17.2674C6.20391 17.3789 6.14174 17.4801 6.05927 17.5631C5.97679 17.6462 5.87629 17.7087 5.76569 17.7459C5.6551 17.783 5.53745 17.7937 5.42204 17.7771H4.98834L4.99196 19.429ZM11.4767 17.277C9.03834 14.8238 7.77526 12.8625 7.77526 11.0965C7.78436 9.79502 8.30587 8.55049 9.22513 7.63656C10.1444 6.72263 11.3861 6.21413 12.6773 6.22287C13.9687 6.21413 15.2106 6.72273 16.13 7.63683C17.0495 8.55093 17.5711 9.79569 17.5802 11.0974C17.5802 12.8652 16.3171 14.8247 13.8788 17.2761C13.5602 17.5972 13.1282 17.7775 12.6777 17.7775C12.2272 17.7775 11.7952 17.5972 11.4767 17.2761V17.277ZM9.47747 11.0983C9.47747 12.261 10.5441 13.9166 12.6791 16.0632C14.8123 13.9166 15.8789 12.261 15.8789 11.0965C15.8546 10.257 15.5067 9.46004 14.909 8.87488C14.3113 8.28972 13.5109 7.9624 12.6777 7.9624C11.8445 7.9624 11.0441 8.28972 10.4464 8.87488C9.84873 9.46004 9.50083 10.257 9.47657 11.0965V11.0983H9.47747ZM10.9787 10.9851C10.9784 10.5306 11.1574 10.0945 11.4761 9.77289C11.7948 9.45129 12.2272 9.27048 12.6782 9.27024C13.1292 9.27 13.5617 9.45034 13.8808 9.7716C14.1999 10.0929 14.3792 10.5287 14.3795 10.9833V10.9851C14.3795 11.4398 14.2003 11.8759 13.8813 12.1974C13.5623 12.5189 13.1297 12.6996 12.6786 12.6996C12.2275 12.6996 11.7949 12.5189 11.4759 12.1974C11.157 11.8759 10.9778 11.4398 10.9778 10.9851H10.9787Z" fill="#333333"/>
</svg>
