<svg width="220" height="220" viewBox="0 0 220 220" fill="none" xmlns="http://www.w3.org/2000/svg">
<g opacity="0.5">
<mask id="mask0" style="mask-type:alpha" maskUnits="userSpaceOnUse" x="0" y="0" width="220" height="220">
<rect width="220" height="220" fill="white"/>
</mask>
<g mask="url(#mask0)">
<path fill-rule="evenodd" clip-rule="evenodd" d="M112 118.857C222.457 118.857 312 208.402 312 318.865C312 429.327 222.457 518.87 112 518.87C1.543 518.87 -88 429.325 -88 318.865C-88 208.405 1.5425 118.857 112 118.857Z" fill="url(#paint0_linear)"/>
<path fill-rule="evenodd" clip-rule="evenodd" d="M48.3613 120.451L100.742 110.665L128.892 133.148L76.5103 142.934L48.3613 120.451Z" fill="url(#paint1_linear)"/>
<path fill-rule="evenodd" clip-rule="evenodd" d="M131.409 65.1332C131.389 65.1292 131.37 65.1245 131.35 65.1212C131.237 65.1023 131.122 65.0913 131.007 65.0885C130.982 65.0885 130.957 65.0885 130.932 65.0885C130.808 65.0877 130.684 65.0956 130.561 65.112L83.4002 71.7297C83.266 71.7494 83.1335 71.7786 83.0035 71.8172C82.9487 71.8332 82.896 71.8547 82.8422 71.874C82.7717 71.899 82.7012 71.924 82.6327 71.9545C82.418 72.0495 82.2142 72.1676 82.025 72.3067C81.9885 72.3335 81.9537 72.363 81.9182 72.3912C81.8149 72.4729 81.7163 72.5603 81.6227 72.653C81.6037 72.672 81.5845 72.691 81.5657 72.7107C81.503 72.7762 81.4407 72.8435 81.3837 72.914C81.3672 72.9337 81.3517 72.9545 81.3357 72.9745C81.2732 73.054 81.2107 73.135 81.1555 73.2195C81.1055 73.2945 81.0582 73.3707 81.0137 73.4492C80.8847 73.6758 80.7797 73.9153 80.7005 74.1637C80.6875 74.2052 80.6722 74.2462 80.6607 74.2887C80.644 74.3492 80.6315 74.411 80.618 74.4722C80.609 74.5122 80.598 74.5517 80.5905 74.592C80.5777 74.6607 80.5697 74.7305 80.5612 74.8C80.557 74.8342 80.5502 74.8677 80.547 74.9022C80.5373 75.0064 80.5322 75.1115 80.5317 75.2175L80.405 143.328C80.3849 143.815 80.498 144.298 80.7321 144.725C80.9662 145.152 81.3125 145.507 81.7335 145.751L76.844 143.095C76.4229 142.851 76.0767 142.496 75.8426 142.069C75.6085 141.642 75.4954 141.159 75.5155 140.672L75.6425 72.561C75.6425 72.4551 75.6475 72.35 75.6577 72.2457C75.661 72.212 75.6675 72.1787 75.6717 72.1457C75.6805 72.0757 75.6885 72.0055 75.7012 71.9365C75.7087 71.8962 75.7197 71.857 75.7285 71.817C75.7422 71.7555 75.7535 71.6935 75.7712 71.633C75.7832 71.5905 75.7985 71.5492 75.8117 71.508C75.8287 71.4547 75.8437 71.4005 75.8617 71.348C75.914 71.2078 75.9747 71.071 76.0435 70.9382C76.0482 70.929 76.0525 70.9195 76.0572 70.9102C76.0647 70.896 76.071 70.8812 76.0787 70.867C76.1489 70.7365 76.2268 70.6104 76.312 70.4892C76.3916 70.3755 76.4777 70.2664 76.5697 70.1625C76.6613 70.0588 76.7588 69.9604 76.8617 69.868C76.9712 69.7694 77.0868 69.678 77.208 69.5942C77.3553 69.4922 77.5108 69.4027 77.673 69.3265C77.9378 69.2018 78.2199 69.1175 78.5097 69.0765L125.67 62.4582C125.793 62.4418 125.917 62.434 126.041 62.435C126.066 62.435 126.091 62.435 126.116 62.435C126.231 62.4378 126.346 62.4487 126.46 62.4677C126.48 62.471 126.499 62.476 126.519 62.4797C126.566 62.489 126.613 62.4967 126.659 62.5085L126.688 62.524L126.659 62.5085C126.816 62.5485 126.967 62.6045 127.112 62.6755C127.141 62.6897 127.17 62.705 127.199 62.7205L132.089 65.3765C131.876 65.2612 131.647 65.1791 131.409 65.1332Z" fill="url(#paint2_linear)"/>
<path fill-rule="evenodd" clip-rule="evenodd" d="M130.561 65.1114C132.142 64.8897 133.421 66.0912 133.418 67.795L133.291 135.907C133.288 137.612 132.003 139.174 130.422 139.396L83.262 146.015C81.681 146.237 80.4018 145.035 80.4048 143.329L80.5315 75.2179C80.5348 73.5139 81.8193 71.9524 83.4 71.7307L130.561 65.1114Z" fill="url(#paint3_linear)"/>
<path fill-rule="evenodd" clip-rule="evenodd" d="M126.697 71.7197C128.02 71.534 129.09 72.5395 129.087 73.9647L128.981 130.949C128.979 132.377 127.904 133.683 126.581 133.869L87.1251 139.406C85.8024 139.591 84.7321 138.586 84.7349 137.159L84.8409 80.1742C84.8434 78.7492 85.9181 77.4422 87.2409 77.2567L126.697 71.7197Z" fill="white"/>
<path fill-rule="evenodd" clip-rule="evenodd" d="M103.167 63.09H106.192V67.34C105.755 67.6648 105.225 67.8402 104.68 67.8402C104.135 67.8402 103.605 67.6648 103.167 67.34V63.09Z" fill="url(#paint4_linear)"/>
<path fill-rule="evenodd" clip-rule="evenodd" d="M107.309 52.388C107.172 52.355 107.033 52.3265 106.891 52.3035C106.835 52.2945 106.779 52.288 106.722 52.2805C106.606 52.2652 106.489 52.253 106.372 52.2447C106.31 52.2404 106.248 52.237 106.186 52.2345C106.064 52.23 105.941 52.23 105.817 52.233C105.761 52.233 105.705 52.233 105.649 52.2367C105.469 52.246 105.288 52.2617 105.104 52.2867C104.932 52.3117 104.762 52.3417 104.593 52.3792C104.572 52.3837 104.552 52.3902 104.532 52.395C104.382 52.43 104.232 52.4685 104.084 52.5137L104.072 52.5177C103.743 52.62 103.421 52.7461 103.11 52.8952C103.016 52.9402 102.924 52.99 102.832 53.039C102.751 53.082 102.67 53.1225 102.59 53.1685C102.52 53.2097 102.452 53.2557 102.382 53.299C100.722 54.3585 99.4839 55.9656 98.8837 57.8417C98.8527 57.938 98.8174 58.0327 98.7902 58.1302C98.7517 58.267 98.7234 58.407 98.6924 58.5457C98.6717 58.638 98.6459 58.729 98.6284 58.822C98.5992 58.9777 98.5812 59.136 98.5612 59.2937C98.5514 59.3725 98.5362 59.45 98.5284 59.529C98.5057 59.7668 98.494 60.0062 98.4932 60.2472C98.4884 62.7487 99.7127 64.779 101.557 65.7722L99.2664 64.5395C97.4214 63.547 96.1974 61.5167 96.2022 59.0145C96.2022 58.7738 96.2138 58.5345 96.2372 58.2965C96.2449 58.2172 96.2604 58.14 96.2702 58.0612C96.2902 57.9035 96.3082 57.7452 96.3374 57.5895C96.3547 57.4965 96.3804 57.406 96.4012 57.3145C96.4324 57.1752 96.4607 57.0352 96.4992 56.898C96.5262 56.8012 96.5614 56.7072 96.5919 56.6115C96.6307 56.4902 96.6654 56.3672 96.7097 56.248C96.7642 56.1015 96.8259 55.9582 96.8884 55.8152C96.8982 55.793 96.9064 55.7697 96.9164 55.7475C96.9664 55.634 97.0232 55.5225 97.0787 55.4122C97.1079 55.3535 97.1357 55.2942 97.1664 55.2372C97.1817 55.2085 97.1947 55.1782 97.2102 55.1495C97.5249 54.5707 97.9053 54.0301 98.3439 53.5385C98.5558 53.3011 98.7812 53.0762 99.0189 52.8647C99.272 52.6395 99.5392 52.4308 99.8189 52.2397C100.159 52.0068 100.517 51.8023 100.891 51.6282L100.898 51.6322L100.891 51.6282C101.5 51.3431 102.149 51.1503 102.816 51.056C102.999 51.031 103.18 51.0155 103.36 51.006C103.417 51.003 103.472 51.0035 103.528 51.002C103.653 50.9992 103.776 50.999 103.897 51.0037C103.96 51.006 104.022 51.0097 104.083 51.014C104.201 51.0222 104.318 51.0345 104.433 51.0497C104.49 51.0572 104.547 51.0635 104.602 51.0725C104.744 51.0955 104.883 51.1237 105.02 51.1572C105.043 51.1627 105.066 51.1652 105.089 51.171L105.092 51.1727C105.524 51.2824 105.941 51.4444 106.333 51.6552L108.624 52.8877C108.209 52.6655 107.767 52.4975 107.309 52.388Z" fill="url(#paint5_linear)"/>
<path fill-rule="evenodd" clip-rule="evenodd" d="M105.253 53.6192L107.544 54.8517C108.826 55.5417 109.677 56.9534 109.674 58.6929C109.669 61.3929 107.61 63.8712 105.081 64.2227L102.79 62.99C105.319 62.6387 107.378 60.1592 107.383 57.4604C107.386 55.7209 106.535 54.309 105.253 53.6192ZM102.634 63.8057L100.343 62.5732C101.093 62.9704 101.951 63.1165 102.79 62.99L105.081 64.2227C104.242 64.3493 103.384 64.2031 102.634 63.8057Z" fill="#B3B3B3"/>
<path fill-rule="evenodd" clip-rule="evenodd" d="M105.103 52.2867C108.741 51.7809 111.694 54.5282 111.686 58.4132C111.679 62.2982 108.714 65.8657 105.077 66.3712C101.44 66.8767 98.485 64.1297 98.4922 60.2462C98.4995 56.3627 101.464 52.7924 105.103 52.2867ZM105.081 64.2227C107.609 63.8712 109.669 61.3917 109.674 58.6929C109.679 55.9942 107.628 54.0839 105.099 54.4352C102.57 54.7864 100.509 57.2684 100.504 59.9674C100.499 62.6664 102.552 64.5739 105.08 64.2227" fill="#E6E6E6"/>
<path d="M104.812 63.887C105.945 63.887 106.863 62.9688 106.863 61.8362C106.863 60.7036 105.945 59.7855 104.812 59.7855C103.679 59.7855 102.761 60.7036 102.761 61.8362C102.761 62.9688 103.679 63.887 104.812 63.887Z" fill="url(#paint6_radial)"/>
<path fill-rule="evenodd" clip-rule="evenodd" d="M109.972 99.3829C110.105 99.3646 110.241 99.3763 110.369 99.4172C110.498 99.4581 110.615 99.5271 110.714 99.6193C110.812 99.7114 110.888 99.8244 110.937 99.9498C110.986 100.075 111.007 100.21 110.997 100.344L110.951 101.752C110.952 102.047 110.849 102.333 110.662 102.561C110.474 102.789 110.213 102.945 109.924 103.002L93.0235 105.373C92.89 105.392 92.7541 105.38 92.6257 105.339C92.4973 105.298 92.3797 105.229 92.2814 105.137C92.1832 105.045 92.1068 104.932 92.0578 104.806C92.0089 104.681 91.9886 104.546 91.9985 104.411L92.044 103.004C92.0436 102.708 92.1459 102.422 92.3334 102.194C92.521 101.966 92.782 101.81 93.0718 101.754L109.972 99.3829Z" fill="url(#paint7_linear)"/>
<path fill-rule="evenodd" clip-rule="evenodd" d="M116.972 107.883C117.105 107.865 117.241 107.876 117.369 107.917C117.498 107.958 117.615 108.027 117.714 108.119C117.812 108.211 117.888 108.324 117.937 108.45C117.986 108.575 118.007 108.71 117.997 108.844L117.951 110.252C117.952 110.547 117.849 110.833 117.662 111.061C117.474 111.289 117.213 111.445 116.924 111.502L93.0235 115.123C92.89 115.142 92.7541 115.13 92.6257 115.089C92.4973 115.048 92.3797 114.979 92.2814 114.887C92.1832 114.795 92.1068 114.682 92.0578 114.556C92.0089 114.431 91.9886 114.296 91.9985 114.161L92.044 112.754C92.0436 112.458 92.1459 112.172 92.3334 111.944C92.521 111.716 92.782 111.56 93.0718 111.504L116.972 107.883Z" fill="url(#paint8_linear)"/>
<path fill-rule="evenodd" clip-rule="evenodd" d="M121.417 86.715V87.215C120.811 87.4212 120.578 87.944 120.167 88.34C120.209 89.0066 120.251 89.6733 120.292 90.34C119.41 90.265 119.281 89.885 118.292 89.84C117.89 90.3004 117.372 90.6455 116.792 90.84C116.78 90.745 116.736 90.6569 116.667 90.59C116.862 89.9849 116.947 89.3499 116.917 88.715C116.445 88.49 115.851 88.1077 115.667 87.59C116.27 87.3194 116.898 87.11 117.542 86.965C117.775 86.4202 118.139 85.3497 118.667 85.09V85.215C119.056 85.6635 119.092 86.315 119.667 86.59C119.998 86.8085 120.879 86.7307 121.417 86.715ZM113.542 87.84V88.215C111.722 89.3852 112.839 89.7022 112.292 91.465C111.684 91.2355 111.23 90.9497 110.542 90.84C110.153 91.3737 109.569 91.7329 108.917 91.84C108.94 91.1837 109.188 90.4032 109.042 90.09C108.781 89.3702 108.069 89.3777 107.792 88.715C109.58 87.9492 109.804 88.0812 110.542 86.215C110.637 86.2274 110.726 86.2714 110.792 86.34C111.803 87.4747 111.167 87.9062 113.542 87.84ZM101.042 92.965C101.073 92.4317 101.309 91.4537 101.167 91.215C100.903 90.4785 100.185 90.4322 99.9175 89.715C100.381 89.5595 101.357 89.436 101.667 89.09C102.376 88.7007 102.19 87.582 103.042 87.34C103.298 88.6462 103.867 88.9195 105.542 88.84V88.965C105.623 89.0735 105.667 89.2049 105.667 89.34C105.158 89.6732 104.848 90.1822 104.417 90.59C104.417 91.3742 104.578 91.8055 104.667 92.465C104.508 92.5308 104.339 92.5729 104.167 92.59C103.758 92.2101 103.226 91.9886 102.667 91.965C102.278 92.4987 101.694 92.8579 101.042 92.965ZM97.7925 90.09V90.465C97.2642 90.8017 96.9805 91.298 96.5425 91.715C96.5792 92.3005 96.8227 93.1467 96.6675 93.465C96.5179 93.5577 96.3431 93.6014 96.1675 93.59C95.7898 93.2538 95.2978 93.0749 94.7925 93.09C94.3779 93.5957 93.8058 93.9478 93.1675 94.09C93.195 93.2045 93.4175 92.6977 93.2925 91.965C92.802 91.7362 92.3734 91.3933 92.0425 90.965C92.572 90.6635 93.804 90.4532 94.1675 89.965C94.5777 89.415 94.3775 88.669 95.1675 88.465C95.4022 89.545 95.8602 90.0262 97.2925 89.965C97.4421 90.0577 97.6169 90.1014 97.7925 90.09Z" fill="url(#paint9_linear)"/>
<path fill-rule="evenodd" clip-rule="evenodd" d="M106.417 120.84C106.417 120.84 106.361 123.165 106.417 123.59C106.501 124.114 106.67 124.621 106.917 125.09C107.096 125.338 122.667 145.09 122.667 145.09C123.278 145.675 124.074 146.029 124.917 146.09C125.652 146.047 127.417 145.84 127.417 145.84C127.417 145.84 151.061 142.262 152.167 142.09C153.274 141.918 153.878 141.53 153.917 141.09C153.957 140.65 153.917 139.34 153.917 139.34L136.167 117.34L106.417 120.84Z" fill="url(#paint10_linear)"/>
<path fill-rule="evenodd" clip-rule="evenodd" d="M134.167 116.34C136.687 116.163 140.042 121.09 140.042 121.09L142.917 124.465C142.917 124.465 147.792 130.73 150.167 133.965C151.171 135.333 153.356 137.636 153.917 139.465C153.856 140.279 150.667 140.59 150.667 140.59C150.667 140.59 134.401 143.215 128.917 144.09C126.517 144.67 124.898 144.283 123.667 143.34C122.907 142.757 121.381 140.653 120.417 139.34C118.205 136.324 115.667 133.504 113.417 130.465C111.823 128.31 110.034 126.274 108.417 124.09C107.677 123.09 106.479 122.519 106.417 120.84C106.647 120.679 106.631 120.594 106.917 120.465C108.003 119.678 133.206 116.64 134.167 116.34ZM133.792 118.59L109.917 122.09C109.782 122.273 109.696 122.489 109.667 122.715L122.292 138.715H122.417V138.59L123.792 127.965C124.207 127.714 124.683 127.584 125.167 127.59C126.057 128.211 127.164 128.337 128.167 128.84C129.929 129.722 131.742 131.277 134.167 131.34C134.449 130.858 134.896 129.715 135.417 129.465C136.396 128.83 138.156 130.259 138.792 130.59C140.001 131.218 141.187 131.469 142.417 132.09C144.274 133.027 146.325 134.37 148.417 134.965V134.59C147.077 133.674 145.207 130.631 144.167 129.215C142.877 127.457 141.21 125.849 139.917 124.09C138.488 122.145 136.144 118.865 135.417 118.59C134.439 118.408 134.334 118.59 133.792 118.59ZM131.542 121.09C134.742 121.011 138.099 122.851 138.042 125.965C137.684 126.323 137.604 126.655 137.042 126.84C136.182 127.532 134.341 126.876 133.667 126.59C132.497 126.092 129.265 124.349 130.042 122.215C130.279 121.565 131.025 121.472 131.542 121.09Z" fill="url(#paint11_linear)"/>
<path fill-rule="evenodd" clip-rule="evenodd" d="M40.7652 132.723C40.8713 132.723 40.9731 132.766 41.0481 132.841C41.1231 132.916 41.1652 133.017 41.1652 133.123V137.955C41.1652 138.061 41.1231 138.163 41.0481 138.238C40.9731 138.313 40.8713 138.355 40.7652 138.355C40.6591 138.355 40.5574 138.313 40.4824 138.238C40.4074 138.163 40.3652 138.061 40.3652 137.955V133.123C40.3652 133.017 40.4074 132.916 40.4824 132.841C40.5574 132.766 40.6591 132.723 40.7652 132.723Z" fill="#B3B3B3"/>
<path fill-rule="evenodd" clip-rule="evenodd" d="M40.9305 126.297C42.2937 126.297 43.9842 128.213 44.5845 130.699C45.1552 133.062 43.8215 135.1 40.9305 135.1C37.712 135.1 36.7287 133.067 37.2765 130.699C37.8767 128.104 39.622 126.297 40.9305 126.297Z" fill="url(#paint12_linear)"/>
<path fill-rule="evenodd" clip-rule="evenodd" d="M182.015 146.973C182.174 146.973 182.327 147.037 182.439 147.149C182.552 147.262 182.615 147.414 182.615 147.573V152.005C182.615 152.164 182.552 152.316 182.439 152.429C182.327 152.541 182.174 152.605 182.015 152.605C181.856 152.605 181.703 152.541 181.591 152.429C181.478 152.316 181.415 152.164 181.415 152.005V147.573C181.415 147.414 181.478 147.262 181.591 147.149C181.703 147.037 181.856 146.973 182.015 146.973Z" fill="#B3B3B3"/>
<path fill-rule="evenodd" clip-rule="evenodd" d="M182.099 147.867C178.049 147.867 177.249 145.924 177.612 143.578C177.724 142.826 177.956 142.097 178.297 141.417C178.12 140.797 178.12 140.139 178.297 139.519C178.899 136.951 180.809 135.162 182.122 135.162C183.489 135.162 185.344 137.059 185.947 139.519C186.132 140.15 186.107 140.824 185.877 141.439C186.226 142.11 186.466 142.832 186.59 143.578C186.975 145.921 186.017 147.867 182.099 147.867Z" fill="url(#paint13_linear)"/>
<path fill-rule="evenodd" clip-rule="evenodd" d="M69.765 160.223C69.9242 160.223 70.0768 160.287 70.1893 160.399C70.3018 160.512 70.365 160.664 70.365 160.823V165.255C70.365 165.414 70.3018 165.566 70.1893 165.679C70.0768 165.791 69.9242 165.855 69.765 165.855C69.6059 165.855 69.4533 165.791 69.3408 165.679C69.2283 165.566 69.165 165.414 69.165 165.255V160.823C69.165 160.664 69.2283 160.512 69.3408 160.399C69.4533 160.287 69.6059 160.223 69.765 160.223Z" fill="#B3B3B3"/>
<path fill-rule="evenodd" clip-rule="evenodd" d="M69.7313 148.48C72.3138 148.48 73.998 152.332 74.4062 155.603C74.811 158.838 73.8133 161.526 69.7313 161.526C65.5118 161.526 64.678 158.843 65.0563 155.603C65.4645 152.088 67.1488 148.48 69.7313 148.48Z" fill="url(#paint14_linear)"/>
<path fill-rule="evenodd" clip-rule="evenodd" d="M62.3611 109.984C62.1333 109.57 61.7889 109.231 61.3707 109.01C60.9525 108.79 60.4787 108.697 60.0081 108.743C58.9756 108.8 58.9015 108.56 59.7858 108.024C60.2002 107.796 60.5387 107.452 60.7593 107.034C60.9799 106.616 61.073 106.142 61.0271 105.671C60.9704 104.639 61.21 104.565 61.7458 105.449C61.9735 105.863 62.3178 106.202 62.736 106.422C63.1542 106.643 63.628 106.736 64.0986 106.69C65.1311 106.633 65.2052 106.873 64.3211 107.409C63.9066 107.637 63.5681 107.981 63.3475 108.399C63.1268 108.817 63.0338 109.291 63.0798 109.762C63.1365 110.794 62.8969 110.868 62.3611 109.984Z" fill="#CCCCCC"/>
<path fill-rule="evenodd" clip-rule="evenodd" d="M62.114 109.737C61.8862 109.323 61.5419 108.984 61.1237 108.763C60.7054 108.543 60.2316 108.45 59.761 108.496C58.7285 108.553 58.6544 108.313 59.5387 107.777C59.9531 107.549 60.2916 107.205 60.5122 106.787C60.7329 106.369 60.826 105.895 60.78 105.424C60.7233 104.392 60.9629 104.318 61.4987 105.202C61.7265 105.616 62.0707 105.955 62.489 106.175C62.9072 106.396 63.3809 106.489 63.8515 106.443C64.884 106.386 64.9582 106.626 64.074 107.162C63.6596 107.39 63.3211 107.734 63.1005 108.152C62.8799 108.57 62.7868 109.044 62.8327 109.515C62.8892 110.547 62.6497 110.621 62.114 109.737Z" fill="url(#paint15_radial)"/>
</g>
</g>
<defs>
<linearGradient id="paint0_linear" x1="112.003" y1="518.872" x2="112.003" y2="118.856" gradientUnits="userSpaceOnUse">
<stop offset="0.919" stop-color="#E6E6E6" stop-opacity="0"/>
<stop offset="1" stop-color="#E6E6E6"/>
</linearGradient>
<linearGradient id="paint1_linear" x1="92.6506" y1="142.934" x2="84.6058" y2="110.668" gradientUnits="userSpaceOnUse">
<stop stop-color="#CCCCCC"/>
<stop offset="1" stop-color="#E6E6E6" stop-opacity="0"/>
</linearGradient>
<linearGradient id="paint2_linear" x1="114.191" y1="145.754" x2="93.4172" y2="62.4337" gradientUnits="userSpaceOnUse">
<stop stop-color="#999999"/>
<stop offset="1" stop-color="#CCCCCC"/>
</linearGradient>
<linearGradient id="paint3_linear" x1="80.4018" y1="132.07" x2="133.417" y2="79.0547" gradientUnits="userSpaceOnUse">
<stop stop-color="#CCCCCC"/>
<stop offset="1" stop-color="white"/>
</linearGradient>
<linearGradient id="paint4_linear" x1="103.167" y1="65.465" x2="106.191" y2="65.465" gradientUnits="userSpaceOnUse">
<stop stop-color="#B3B3B3"/>
<stop offset="0.496" stop-color="#EAEAEA"/>
<stop offset="1" stop-color="#B3B3B3"/>
</linearGradient>
<linearGradient id="paint5_linear" x1="6075.31" y1="6753.44" x2="5822.74" y2="5901.59" gradientUnits="userSpaceOnUse">
<stop stop-color="#999999"/>
<stop offset="1" stop-color="#CCCCCC"/>
</linearGradient>
<radialGradient id="paint6_radial" cx="0" cy="0" r="1" gradientUnits="userSpaceOnUse" gradientTransform="translate(104.812 61.8362) scale(2.05075)">
<stop stop-color="#E6E6E6"/>
<stop offset="1" stop-color="#B3B3B3"/>
</radialGradient>
<linearGradient id="paint7_linear" x1="110.996" y1="102.375" x2="91.9958" y2="102.375" gradientUnits="userSpaceOnUse">
<stop stop-color="#E6E6E6" stop-opacity="0"/>
<stop offset="1" stop-color="#E6E6E6"/>
</linearGradient>
<linearGradient id="paint8_linear" x1="14037.8" y1="4728.19" x2="117.998" y2="4728.19" gradientUnits="userSpaceOnUse">
<stop stop-color="#E6E6E6" stop-opacity="0"/>
<stop offset="1" stop-color="#E6E6E6"/>
</linearGradient>
<linearGradient id="paint9_linear" x1="16248.3" y1="5026.09" x2="12796.7" y2="5026.09" gradientUnits="userSpaceOnUse">
<stop stop-color="#E6E6E6" stop-opacity="0"/>
<stop offset="1" stop-color="#E6E6E6"/>
</linearGradient>
<linearGradient id="paint10_linear" x1="28599.5" y1="22398.6" x2="28081.8" y2="18964.9" gradientUnits="userSpaceOnUse">
<stop stop-color="#999999"/>
<stop offset="1" stop-color="#CCCCCC"/>
</linearGradient>
<linearGradient id="paint11_linear" x1="25231.7" y1="21644.4" x2="27981.8" y2="16983.6" gradientUnits="userSpaceOnUse">
<stop stop-color="#CCCCCC"/>
<stop offset="1" stop-color="white"/>
</linearGradient>
<linearGradient id="paint12_linear" x1="37.1362" y1="134.484" x2="44.7065" y2="126.914" gradientUnits="userSpaceOnUse">
<stop stop-color="#D7D7D7"/>
<stop offset="0.485" stop-color="#FAFAFA"/>
<stop offset="1" stop-color="#FAFAFA"/>
</linearGradient>
<linearGradient id="paint13_linear" x1="177.535" y1="146.078" x2="186.667" y2="136.945" gradientUnits="userSpaceOnUse">
<stop stop-color="#CCCCCC"/>
<stop offset="1" stop-color="#FAFAFA"/>
</linearGradient>
<linearGradient id="paint14_linear" x1="3149.84" y1="10973.4" x2="3623.06" y2="10628.3" gradientUnits="userSpaceOnUse">
<stop stop-color="#D7D7D7"/>
<stop offset="0.485" stop-color="#FAFAFA"/>
<stop offset="1" stop-color="#FAFAFA"/>
</linearGradient>
<radialGradient id="paint15_radial" cx="0" cy="0" r="1" gradientUnits="userSpaceOnUse" gradientTransform="translate(61.8082 107.469) scale(2.87875)">
<stop stop-color="#FAFAFA"/>
<stop offset="1" stop-color="#E6E6E6"/>
</radialGradient>
</defs>
</svg>
